<svg xmlns="http://www.w3.org/2000/svg" width="2816" height="1536"><path fill="#FDFEFD" d="M0 0h2816v1536H0z"/><path fill="#FBFCFB" d="M748 532c1.204 3.745 2.385 7.497 3.563 11.25l1.037 3.223.966 3.105.905 2.857c.548 2.655.537 4.068-.471 6.565-1.687.984-1.687.984-4 1.75-10.772 3.938-21.037 9.13-31.125 14.563-6.272 3.374-12.622 6.521-19.062 9.562-12.428 5.869-24.701 12.04-36.974 18.224-8.298 4.175-16.62 8.272-25.056 12.163-5.783 2.68-11.36 5.68-16.928 8.781-5.146 2.612-10.527 4.737-15.855 6.957l306 1c.205-18.533.205-18.533-7-36-4.92-3.704-9.201-5.15-15.312-5.687-5.201-.752-5.201-.752-7.2-3.055-1.164-2.734-1.839-5.354-2.488-8.258q-.55-2.221-1.11-4.441A478 478 0 0 1 875 562c24.87-1.027 24.87-1.027 35 5l2.758 1.492c4.723 2.658 8.688 5.362 12.242 9.508l1.488 1.703c4.348 5.308 6.388 10.838 8.512 17.297l1.028 2.168c1.233 3.593 1.326 7.001 1.386 10.758l.059 2.265c.06 2.374.106 4.748.152 7.121q.057 2.424.117 4.846.142 5.921.258 11.842l3.38 1.611c20.557 9.845 35.759 22.746 44.26 44.287 3.65 10.587 4.783 20.312 4.653 31.493q-.009 2.16-.013 4.32c-.011 3.748-.04 7.496-.074 11.245-.031 3.841-.044 7.683-.06 11.524A5361 5361 0 0 1 990 763l2.33-.083c5.745.178 11.321 4.862 15.389 8.708 6.49 7.598 7.43 13.937 7.442 23.552l.015 2.776q.021 4.536.027 9.07l.017 6.318q.015 6.62.02 13.24c.006 5.648.03 11.296.058 16.944.019 4.35.024 8.699.026 13.048q.004 3.123.024 6.246c.017 2.915.015 5.83.008 8.745l.028 2.592c-.054 7.81-2.503 13.643-7.384 19.844-5.593 4.923-10.409 8.126-18 8l.027 2.27q.12 10.72.18 21.44.028 5.508.095 11.016c.334 27.484-1.339 52.346-21.302 73.274-15.489 15.614-35.206 24.265-57.236 24.525-2.224.005-4.448-.009-6.672-.024q-2.463.006-4.927.017c-4.465.015-8.93.005-13.395-.01-4.834-.01-9.667.001-14.501.01-9.45.014-18.9.006-28.35-.009-11.016-.017-22.032-.013-33.048-.01-19.66.006-39.32-.008-58.98-.032q-28.587-.036-57.172-.021a50123 50123 0 0 1-68.992-.006l-3.306-.002q-11.506-.006-23.013.001-14.027.009-28.054-.02-7.15-.017-14.302-.008-6.555.01-13.11-.017a700 700 0 0 0-4.723.003c-19.498.075-35.67-4.126-50.219-17.397-13.077-13.392-16.468-29.649-16.381-47.758q-.005-2.367-.014-4.734c-.013-4.311-.006-8.622.003-12.934.007-4.659-.004-9.318-.012-13.977-.013-9.117-.01-18.235-.002-27.352q.01-11.116.005-22.233l-.002-3.2-.003-6.434c-.008-20.1.002-40.201.018-60.302q.018-25.858-.003-51.718a47636 47636 0 0 1-.01-66.504l.001-3.186q.003-11.1-.009-22.202-.013-13.531.01-27.062.013-6.902.001-13.803a2142 2142 0 0 1 .012-12.644q.005-2.282-.006-4.564c-.049-11.14 1.374-20.07 6.58-30.018l1.605-3.102L482 581h2l.79-1.79c4.724-8.626 15.487-13.283 24.376-16.276 6.944-1.675 14.21-1.183 21.31-1.142q2.508.004 5.018.004 5.389.004 10.778.021c5.692.018 11.384.014 17.076.007 16.183-.02 32.366-.026 48.549.021q13.42.041 26.837.001c4.726-.013 9.451-.013 14.177.018 4.45.03 8.9.025 13.35-.002a316 316 0 0 1 4.87.023c11.484.136 18.948-1.984 28.869-7.885 1.452-.745 2.91-1.48 4.379-2.191l1.836-.919q2.873-1.431 5.75-2.855c8.547-4.218 8.547-4.218 16.91-8.785 3.879-2.212 7.891-3.862 12.059-5.453C745.594 532 745.594 532 748 532"/><path fill="#173156" d="M748 532c1.204 3.745 2.385 7.497 3.563 11.25l1.037 3.223.966 3.105.905 2.857c.548 2.655.537 4.068-.471 6.565-1.687.984-1.687.984-4 1.75-10.772 3.938-21.037 9.13-31.125 14.563-6.272 3.374-12.622 6.521-19.062 9.562-12.428 5.869-24.701 12.04-36.974 18.224-8.298 4.175-16.62 8.272-25.056 12.163-5.783 2.68-11.36 5.68-16.928 8.781-5.146 2.612-10.527 4.737-15.855 6.957l306 1c.205-18.533.205-18.533-7-36-4.92-3.704-9.201-5.15-15.312-5.687-5.201-.752-5.201-.752-7.2-3.055-1.164-2.734-1.839-5.354-2.488-8.258q-.55-2.221-1.11-4.441A478 478 0 0 1 875 562c24.87-1.027 24.87-1.027 35 5l2.758 1.492c4.723 2.658 8.688 5.362 12.242 9.508l1.488 1.703c4.348 5.308 6.388 10.838 8.512 17.297l1.028 2.168c1.233 3.593 1.326 7.001 1.386 10.758l.059 2.265c.06 2.374.106 4.748.152 7.121q.057 2.424.117 4.846.142 5.921.258 11.842l3.38 1.611c20.557 9.845 35.759 22.746 44.26 44.287 3.65 10.587 4.783 20.312 4.653 31.493q-.009 2.16-.013 4.32c-.011 3.748-.04 7.496-.074 11.245-.031 3.841-.044 7.683-.06 11.524A5361 5361 0 0 1 990 763l2.33-.083c5.745.178 11.321 4.862 15.389 8.708 6.49 7.598 7.43 13.937 7.442 23.552l.015 2.776q.021 4.536.027 9.07l.017 6.318q.015 6.62.02 13.24c.006 5.648.03 11.296.058 16.944.019 4.35.024 8.699.026 13.048q.004 3.123.024 6.246c.017 2.915.015 5.83.008 8.745l.028 2.592c-.054 7.81-2.503 13.643-7.384 19.844-5.593 4.923-10.409 8.126-18 8l.027 2.27q.12 10.72.18 21.44.028 5.508.095 11.016c.334 27.484-1.339 52.346-21.302 73.274-15.489 15.614-35.206 24.265-57.236 24.525-2.224.005-4.448-.009-6.672-.024q-2.463.006-4.927.017c-4.465.015-8.93.005-13.395-.01-4.834-.01-9.667.001-14.501.01-9.45.014-18.9.006-28.35-.009-11.016-.017-22.032-.013-33.048-.01-19.66.006-39.32-.008-58.98-.032q-28.587-.036-57.172-.021a50123 50123 0 0 1-68.992-.006l-3.306-.002q-11.506-.006-23.013.001-14.027.009-28.054-.02-7.15-.017-14.302-.008-6.555.01-13.11-.017a700 700 0 0 0-4.723.003c-19.498.075-35.67-4.126-50.219-17.397-13.077-13.392-16.468-29.649-16.381-47.758q-.005-2.367-.014-4.734c-.013-4.311-.006-8.622.003-12.934.007-4.659-.004-9.318-.012-13.977-.013-9.117-.01-18.235-.002-27.352q.01-11.116.005-22.233l-.002-3.2-.003-6.434c-.008-20.1.002-40.201.018-60.302q.018-25.858-.003-51.718a47636 47636 0 0 1-.01-66.504l.001-3.186q.003-11.1-.009-22.202-.013-13.531.01-27.062.013-6.902.001-13.803a2142 2142 0 0 1 .012-12.644q.005-2.282-.006-4.564c-.049-11.14 1.374-20.07 6.58-30.018l1.605-3.102L482 581h2l.79-1.79c4.724-8.626 15.487-13.283 24.376-16.276 6.944-1.675 14.21-1.183 21.31-1.142q2.508.004 5.018.004 5.389.004 10.778.021c5.692.018 11.384.014 17.076.007 16.183-.02 32.366-.026 48.549.021q13.42.041 26.837.001c4.726-.013 9.451-.013 14.177.018 4.45.03 8.9.025 13.35-.002a316 316 0 0 1 4.87.023c11.484.136 18.948-1.984 28.869-7.885 1.452-.745 2.91-1.48 4.379-2.191l1.836-.919q2.873-1.431 5.75-2.855c8.547-4.218 8.547-4.218 16.91-8.785 3.879-2.212 7.891-3.862 12.059-5.453C745.594 532 745.594 532 748 532M499 654a103199 103199 0 0 0-.22 138.25l-.003 2.937c-.017 15.684-.049 31.367-.086 47.051q-.056 24.145-.067 48.291-.008 14.895-.056 29.79-.03 10.219-.022 20.438c.003 3.928-.001 7.856-.023 11.785q-.028 5.403-.007 10.806a533 533 0 0 1-.032 5.726c.074 10.826 2.58 20.658 10.196 28.7 9.546 9.086 19.763 9.813 32.417 9.74q2.442.009 4.882.022c4.452.018 8.904.012 13.356.002 4.81-.007 9.619.009 14.428.022 9.415.021 18.83.021 28.246.013q11.484-.008 22.968.001l3.304.003 6.648.006c20.771.016 41.543.007 62.314-.01 18.985-.014 37.97 0 56.954.03a29306 29306 0 0 0 68.45.026q11.46-.002 22.92.022 13.981.027 27.963-.005c4.751-.012 9.502-.015 14.253.004q6.538.024 13.075-.014a414 414 0 0 1 4.703.011c15.92.122 30.646-3.639 42.681-14.71 5.043-5.328 8.692-11.29 11.758-17.937l1.564-3.256c2.323-6.29 1.806-12.916 1.729-19.525q-.009-2.136-.013-4.27c-.011-3.723-.04-7.444-.074-11.166-.03-3.808-.044-7.616-.06-11.424q-.05-11.18-.146-22.359l-3.115-.018q-14.586-.086-29.172-.218c-4.998-.044-9.996-.084-14.994-.11q-7.247-.041-14.492-.117a981 981 0 0 0-5.508-.035c-9.722-.036-18.43-.307-27.719-3.502q-2.496-.64-5-1.25c-15.958-4.899-28.795-18.775-36.79-32.914-8.293-16.793-9.766-35.914-4.21-53.836 6.154-16.23 17.967-32.453 34-40 10.83-4.41 20.603-7.115 32.414-7.205l2.456-.03q3.985-.047 7.97-.081l5.552-.063q7.283-.082 14.564-.153 7.44-.077 14.882-.161 14.58-.162 29.162-.307.141-12.205.207-24.412.03-5.67.095-11.339c.044-3.657.067-7.314.078-10.97q.01-2.08.043-4.158c.239-15.802-3.932-27.35-14.798-38.871-13.006-12.204-27.72-15.016-44.889-14.862q-2.539-.006-5.078-.017c-4.61-.015-9.22.001-13.83.023-4.988.017-9.976.006-14.964-.002q-12.945-.014-25.89.016c-12.488.028-24.976.024-37.464.012q-30.418-.029-60.836-.005l-3.673.003-14.734.011q-20.296.016-40.593.025l-3.673.002q-30.318.013-60.636-.014-18.686-.015-37.372.02-12.798.023-25.594.008c-4.92-.004-9.842-.003-14.762.017q-6.76.026-13.521.002-2.442-.004-4.883.014c-7.978.056-15.037-.042-22.337-3.645-2.005-1.064-2.005-1.064-4.896-.858"/><path fill="#33788F" d="M2229 694c88.347 0 88.347 0 103.867 14.742 6.885 7.289 8.552 16.053 8.324 25.84-.778 9.829-5.004 17.766-12.191 24.418-2.34 1.498-4.68 2.78-7.18 3.992-1.991.878-1.991.878-2.82 3.008l2.176.293c3.247.813 5.284 2.092 8.012 4.02l2.605 1.8c2.192 1.874 3.16 3.235 4.207 5.887h2q1.22 2.655 2.438 5.313l1.37 2.988c3.9 8.833 3.536 21.486.227 30.566-4.822 9.935-13.883 17.982-24.148 21.95-9.089 2.865-18.04 2.565-27.461 2.476q-2.367-.007-4.732-.01c-5.794-.015-11.588-.057-17.381-.096L2229 841z"/><path fill="#173256" d="M1079 694h33l3 14 2 6c.5 2.467.96 4.942 1.39 7.422 1.325 7.368 2.996 14.61 4.856 21.864q.78 3.048 1.55 6.099c1.234 4.889 2.48 9.775 3.726 14.661q1.248 4.896 2.489 9.793.902 3.565 1.818 7.127c1.137 4.493 2.24 8.89 2.737 13.503.4 3.253 1.162 5.55 2.434 8.531l.93-3.677q1.744-6.882 3.495-13.76.75-2.955 1.498-5.909c2.625-10.375 5.327-20.7 8.41-30.948 1.678-5.625 3.021-11.277 4.23-17.019 1.5-6.88 3.212-13.507 5.597-20.144 1.117-3.38 1.766-6.781 2.348-10.29C1165 699 1165 699 1167 694h33c1.984 5.29 3.662 10.114 5.05 15.523l.544 2.108q.866 3.37 1.718 6.744l1.202 4.702a1235 1235 0 0 1 7.526 31.38c2.129 9.366 4.439 18.655 7.28 27.836 2.44 7.929 4.481 15.334 4.68 23.707h2l-.25-3.062c-.01-5.406 1.57-10.322 3.082-15.473 1.019-3.66 1.746-7.344 2.461-11.074 1.99-10.291 4.634-20.422 7.207-30.578l1.473-5.85c3.483-13.838 3.483-13.838 4.982-19.693 1.427-5.607 2.68-11.195 3.67-16.895 1.246-7.116 1.246-7.116 2.375-9.375h32c-2.248 11.24-2.248 11.24-3.48 15.348l-.828 2.791c-.29.965-.58 1.93-.88 2.923q-.946 3.2-1.89 6.403l-.97 3.288c-4.23 14.437-8.16 28.957-12.014 43.497A1536 1536 0 0 1 1257 804l-1.785 6.164-1.84 6.336-.84 2.894c-2.108 7.226-4.32 14.41-6.535 21.606h-35c-12.482-42.542-12.482-42.542-17.043-61.27-1.028-4.008-2.195-7.958-3.395-11.918-2.972-9.826-5.271-19.809-7.562-29.812l-.576 2.274a2197 2197 0 0 1-13.766 51.61l-1.26 4.503-.619 2.213c-2.239 8.02-4.398 16.06-6.535 24.108-.255.955-.51 1.91-.771 2.894l-.649 2.447c-1.21 4.335-2.53 8.64-3.824 12.951h-35c-5.617-15.729-5.617-15.729-7.176-21.855l-.518-2.006q-.54-2.09-1.073-4.184c-.947-3.72-1.917-7.436-2.89-11.15l-.59-2.259c-1.87-7.083-3.942-14.097-6.065-21.109-2.258-7.471-4.366-14.89-6.04-22.515-2.06-9.124-4.736-18.098-7.3-27.09l-1.13-3.965-.56-1.962c-1.669-5.876-3.22-11.78-4.746-17.694-.837-3.17-.837-3.17-2.027-5.95C1079 697 1079 697 1079 694"/><path fill="#33788F" d="M1886 694h33a36348 36348 0 0 1 5.577 22.231q1.02 4.07 2.04 8.14l.632 2.51a498 498 0 0 1 3.314 14.134 353 353 0 0 0 1.656 7.106l.636 2.647 1.29 5.328c1.01 4.204 1.97 8.403 2.785 12.65 1.309 6.688 3.022 13.275 4.695 19.879l.984 3.91q1.193 4.733 2.391 9.465c2.536-5.786 4.442-11.314 5.552-17.535.733-4.034 1.756-7.992 2.76-11.965l.666-2.648A556 556 0 0 1 1958.25 754c3.537-12.444 6.548-25.032 9.664-37.586l.547-2.202q1.231-4.955 2.444-9.912l.806-3.277.689-2.822c.6-2.201.6-2.201 1.6-4.201h33c5.477 16.764 9.747 33.83 13.965 50.95l.598 2.425.595 2.418c1.462 5.86 3.092 11.66 4.78 17.457 2.31 7.94 4.43 15.916 6.437 23.938l.797 3.17C2036 801.741 2036 801.741 2036 804h2l.072-1.789c.534-8.383 2.454-16.254 4.506-24.364.835-3.3 1.65-6.604 2.468-9.907q.616-2.492 1.236-4.983c1.658-6.68 3.245-13.373 4.78-20.082l.688-2.992c1.279-5.589 2.543-11.18 3.806-16.773q1.103-4.88 2.21-9.759.807-3.57 1.607-7.143l.99-4.368.457-2.054c1.066-4.672 1.066-4.672 2.18-5.786a158 158 0 0 1 7.098-.098l2.148.005c2.272.005 4.544.018 6.816.03q2.307.008 4.612.014 5.662.017 11.326.049c-1.711 7.528-3.46 15.037-5.437 22.5l-.65 2.46c-1.8 6.737-3.794 13.397-5.913 20.04q-.985 3.1-1.96 6.204-.642 2.034-1.29 4.066a180 180 0 0 0-3.21 11.558c-1.066 4.285-2.25 8.538-3.415 12.797l-.8 2.928c-2.345 8.563-4.777 17.1-7.246 25.627a595 595 0 0 0-3.208 11.906l-1.197 4.566q-.934 3.565-1.863 7.13-.904 3.465-1.815 6.929l-.562 2.171c-1.32 5.004-1.32 5.004-2.434 6.118-2.594.089-5.16.115-7.754.098l-2.35-.005c-2.486-.005-4.972-.018-7.458-.03q-2.523-.008-5.045-.014-6.197-.017-12.393-.049a5523 5523 0 0 1-3.57-11.774q-.602-1.987-1.208-3.975a645 645 0 0 1-7.26-25.77c-2.328-8.942-4.81-17.84-7.301-26.737q-1.19-4.253-2.376-8.508l-1.543-5.521-.7-2.513A845 845 0 0 0 1990 739l-.594 2.233a10025 10025 0 0 1-12.944 48.256q-2.241 8.283-4.487 16.563-1.408 5.187-2.81 10.375l-1.552 5.717-.952 3.527-.829 3.057c-1.035 4.069-1.921 8.174-2.832 12.272h-36c-22.496-76.86-22.496-76.86-29.96-106.856a548 548 0 0 0-3.169-12.039l-.59-2.163-1.222-4.48q-.937-3.429-1.87-6.858l-1.193-4.374-.562-2.064c-.752-2.748-1.533-5.463-2.434-8.166"/><path fill="#F9FAFA" d="m883.537 789.88 2.817-.004 3.084.01h3.253c3.555 0 7.11.009 10.664.016l7.386.005q9.728.006 19.457.024 11.668.016 23.335.023c11.823.01 23.645.029 35.467.046v86c-26.97.2-26.97.2-38.516.244-7.86.03-15.721.065-23.582.133-6.341.055-12.682.084-19.023.097q-3.62.015-7.239.055c-17.524.189-30.247-.719-43.472-13.267-9.513-10.011-12.625-20.997-12.375-34.473.53-9.69 4.183-16.312 10.207-23.789.752-.96.752-.96 1.52-1.937 6.108-6.929 17.686-13.194 27.017-13.183"/><path fill="#183257" d="M1349 694h36c6.007 14.416 6.007 14.416 8.313 20.5l.798 2.047c1.292 3.41 1.889 5.751 1.889 9.453h2l.883 2.754c2.417 7.441 5.053 14.725 8.023 21.962 1.72 4.23 3.09 8.457 4.324 12.846.883 2.795 1.989 5.433 3.145 8.125 1.973 4.599 3.65 9.242 5.188 14 1.565 4.842 3.318 9.478 5.476 14.086 1.137 2.636 2.016 5.308 2.899 8.04 1.683 5.201 3.689 10.192 5.824 15.222 1.24 2.97 2.418 5.952 3.55 8.965l.989 2.625C1439 837 1439 837 1439 841h-32l-5-15c-1.635-4.469-1.635-4.469-3.3-8.926-.7-2.074-.7-2.074-.7-4.074h-61l-3 10a422 422 0 0 1-2.562 7.375l-1.254 3.523C1329 837 1329 837 1327 841h-32c.973-3.891 2.348-7.435 3.875-11.125 2.094-5.134 3.912-10.232 5.426-15.57 1.278-4.213 3.019-8.24 4.699-12.305q1.474-3.623 2.938-7.25l1.402-3.453c2.38-6.04 4.496-12.178 6.66-18.297 9.915-27.998 9.915-27.998 14.659-39.944 2.301-5.837 4.295-11.746 6.2-17.724 1.141-3.332 1.141-3.332 2.532-6.57 2.07-4.84 3.81-9.815 5.609-14.762"/><path fill="#33778F" d="m2120.772 693.876 2.511.01h2.631c2.884 0 5.768.009 8.652.016l5.982.005q7.89.006 15.778.024 8.043.014 16.086.02 15.795.016 31.588.049.04 4.312.062 8.625l.026 2.45.01 2.402.016 2.19c-.137 2.799-.653 5.569-1.114 8.333h-58l1 6-1 3a99 99 0 0 0-.133 5.219l-.004 3.074.012 3.207-.012 3.207.008 5.889c.03 2.55.03 2.55 1.129 5.404h51v25h-53l1 17v22h59v24h-89c-1.336-2.672-1.126-4.707-1.127-7.7l-.009-3.676.007-4.054-.006-4.252q-.005-5.782 0-11.566c.003-4.027 0-8.055 0-12.082q-.003-10.144.005-20.29.007-11.745-.002-23.489-.007-10.068-.003-20.138.003-6.02-.001-12.04-.004-5.658.005-11.315 0-2.082-.002-4.164-.001-2.83.006-5.66l.001-3.208c.245-4.603 2.925-3.483 6.898-3.49"/><path fill="#183257" d="M1660 694h89v24h-59v36h52v24h-52v39h58v24h-88z"/><path fill="#183256" d="M574 764c18.996-.793 18.996-.793 27 4l1.98 1.18c5.834 4.204 7.669 10.263 10.02 16.82q1.062 2.82 2.126 5.638 1.147 3.05 2.276 6.108a424 424 0 0 0 3.29 8.54c3.586 9.033 6.868 18.109 9.823 27.371 1.603 4.96 3.438 9.646 5.726 14.333C637 850 637 850 637 854c2.663-1.332 2.748-2.472 3.77-5.234l.996-2.66 1.047-2.856 2.171-5.812 1.057-2.852a694 694 0 0 1 10.369-26.264c1.394-3.35 2.75-6.701 3.973-10.119 3.844-10.686 3.844-10.686 8.617-14.203 5.945-1.982 12.68-1.814 18.563.25 2.52 1.81 4.078 2.953 5.437 5.75-.226 4.974-2.16 9.428-4 14l-2.812 7-.784 1.95A639 639 0 0 0 680 826.936l-.747 2a2180 2180 0 0 0-3.788 10.243l-.776 2.098q-1.053 2.854-2.1 5.71c-1.203 3.148-2.571 6.198-3.984 9.258-2.644 5.75-4.961 11.598-7.23 17.504-9.128 23.653-9.128 23.653-15.375 27.25-5.038 1.54-10.598 1.614-15.687.313C620.726 895.87 617.77 884.975 615 875c-1.719-5.536-3.723-10.917-5.906-16.285a525 525 0 0 1-3.469-8.903c-1.81-4.726-3.67-9.43-5.562-14.125a801 801 0 0 1-8.05-20.95 3853 3853 0 0 0-3.082-8.288q-1.525-4.095-3.04-8.195-.764-2.06-1.533-4.12a1582 1582 0 0 1-2.163-5.841l-1.28-3.452C580 782 580 782 580 779h-2a580 580 0 0 1-1.437-4.125l-.81-2.32c-.835-2.832-1.317-5.637-1.753-8.555"/><path fill="#173256" d="M1765 694h110v24h-40v123h-30V718h-40z"/><path fill="#193357" d="M1458 694h30v123h52v25h-82z"/><path fill="#193358" d="M1559 694h30v123h52v25q-15.816.034-31.631.052-7.343.007-14.687.023-7.08.016-14.16.02-2.707.003-5.415.01-3.78.01-7.558.009l-2.284.01c-5.15-.01-5.15-.01-6.265-1.124-.097-1.898-.122-3.8-.12-5.7l-.004-3.753.01-4.155v-4.345q.001-5.916.013-11.832.007-6.176.008-12.352.005-11.703.021-23.406.015-13.32.022-26.64.016-27.41.05-54.817"/><path fill="#1E3759" d="m935.875 917.602 2.125.023 2.125-.023C942 918 942 918 944 921c.446 4.172.324 8.369.313 12.563l.048 3.462c.008 13.609-4.236 26.195-13.615 36.354-9.591 8.905-21.039 13.73-34.126 13.758l-3.926.015-4.308.002-4.581.013q-6.296.017-12.593.022-6.79.01-13.579.029-16.393.034-32.786.052l-9.257.011a86106 86106 0 0 1-70.774.07l-3.34.001c-17.876.013-35.753.046-53.629.088q-27.519.063-55.038.071c-10.303.004-20.607.015-30.91.048q-13.156.044-26.312.028c-4.477-.005-8.953-.002-13.43.022q-6.142.033-12.286.003-2.226-.005-4.452.018c-2.013.02-4.026.004-6.04-.012l-3.391.004c-3.962-.825-5.5-2.502-7.988-5.622.08-3.446.556-4.556 3-7 2.629-.25 2.629-.25 6.043-.25l3.931-.016 4.36.014 4.6-.009c4.228-.008 8.457-.003 12.686.003 4.555.004 9.11-.003 13.665-.008q11.85-.012 23.699-.008c11.432.003 22.865-.009 34.297-.025a82503 82503 0 0 1 106.35-.081h3.362l3.357-.001q27.72-.007 55.441-.055 17.101-.03 34.203-.014 11.725.008 23.451-.021c4.51-.01 9.02-.015 13.529-.002q6.197.017 12.395-.015 2.238-.006 4.474.008c11.644.072 20.667-1.349 29.34-9.532 3.08-3.371 5.617-6.99 7.817-10.988l1.633-2.953c2.281-5.467 1.862-11.47 1.93-17.297q.05-3.508.128-7.016l.038-3.118c.32-3.085.833-5.31 4.146-6.014"/><path fill="#1D3659" d="m539.399 678.614 3.939-.03 4.323.015 4.596-.02c4.213-.02 8.425-.019 12.638-.015 4.543 0 9.086-.016 13.629-.03 8.903-.025 17.806-.033 26.709-.035q10.86-.003 21.721-.017 30.803-.04 61.606-.038h6.716c17.95.002 35.9-.027 53.85-.07q27.66-.064 55.317-.06c10.349 0 20.697-.008 31.046-.04q13.224-.042 26.447-.014c4.495.01 8.988.01 13.482-.016q6.186-.033 12.37.007 2.224.008 4.448-.017c14.458-.154 26.464 3.671 37.46 13.41 11.266 11.515 14.662 25.52 14.616 41.169l.05 3.427.001 3.28.01 2.971C944 745 944 745 942.664 746.82c-2.59 1.837-4.586 1.566-7.665 1.181-1.669-1.162-1.669-1.162-3-3-.337-2.629-.337-2.629-.3-5.777-.01-1.155-.018-2.31-.026-3.498q.014-3.61.062-7.22C931.62 717.378 927.931 707.932 920 700c-9.329-8.566-21.424-8.44-33.432-8.379q-2.314-.004-4.627-.013c-4.213-.012-8.426-.006-12.638.003-4.553.007-9.106-.004-13.659-.012q-11.82-.019-23.639-.01c-11.395.007-22.79-.005-34.184-.023a50772 50772 0 0 0-55.477-.055l-3.35-.001-50.512-.021-3.355-.002q-27.652-.013-55.306-.058a15991 15991 0 0 0-34.12-.016q-11.671.005-23.344-.017c-4.494-.008-8.989-.011-13.483-.001q-6.162.013-12.325-.012a628 628 0 0 0-4.475.007c-2.016.009-4.033-.002-6.049-.014h-3.404L530 691c-2.316-3.474-2.596-4.914-2-9 3.772-2.95 6.685-3.377 11.399-3.386"/><path fill="#183256" d="M783 764c-.866 3.679-2.178 7.004-3.625 10.5-2.517 6.163-4.773 12.392-6.937 18.688-2.197 6.375-4.526 12.629-7.188 18.828-3.923 9.366-7.345 18.944-10.39 28.629C754 843 754 843 752 846a73 73 0 0 0-1.414 4.074l-.778 2.416L749 855c-13.257 39.222-13.257 39.222-23 46-5.198 1.733-9.54 1.445-14.687-.125-8.52-4.822-10.821-13.16-14.313-21.875l-1.27-3.027c-2.73-6.57-2.73-6.57-2.73-9.973h-2a430 430 0 0 1-2.562-6.562l-1.442-3.692c-1.668-6.273.007-11.329 2.438-17.195l1.466-3.569 1.538-3.67 1.525-3.705C697.96 817.94 697.96 817.94 700 814h2l7.324 17.578 1.338 3.193a514 514 0 0 1 2.68 6.598l1.303 3.24c.38.964.762 1.928 1.155 2.921 1.151 2.37 2.22 3.767 4.2 5.47l.27-2.906c.695-4.835 2.544-9.111 4.418-13.594l1.09-2.673A1819 1819 0 0 1 729 826c3.258-7.89 6.302-15.759 8.938-23.875C747.02 774.373 747.02 774.373 754 769l1.93-1.512c8.182-5.167 17.786-3.917 27.07-3.488"/><path fill="#1A3458" d="M808 502c2.007 4.934 3 7.555 3 13h16v2l3.25.375c3.129.521 5.085 1.026 7.75 2.625-1.72 5.449-3.847 10.712-6 16l-1.695-.437c-9.454-2.19-19.67-3.691-28.305 1.437-2.29 1.872-2.29 1.872-2.312 4.875.345 3.45.838 4.739 3.312 7.125 2.872.933 5.555 1.143 8.563 1.21 27.114.809 27.114.809 37.437 9.79 1.938 2.563 1.938 2.563 3 5 .345.744.69 1.488 1.047 2.254 2.145 6.18 1.618 13.254-.047 19.496-3.91 6.355-8.42 11.628-15 15.25q.216 2.063.438 4.125c.08.766.162 1.531.246 2.32.355 2.868.825 5.707 1.316 8.555q-2.905.755-5.812 1.5l-3.27.844C828 620 828 620 825 620q-1.004-2.685-2-5.375l-1.125-3.023C821 609 821 609 821 607l-2.64.14c-10.687.324-19.268-1.402-28.36-7.14.762-3.61 2.125-6.858 3.563-10.25l1.378-3.266L796 584c3.048.528 5.122 1.066 7.875 2.563 6.354 2.84 14.89 2.441 21.547.863 3.092-1.249 5.486-2.851 7.578-5.426.573-2.272.573-2.272.688-4.687l.199-2.45L834 573l-2.437-.937C829 571 829 571 828 570c-1.955-.11-3.913-.156-5.871-.176l-3.682-.072q-3.831-.063-7.664-.094c-9.016-.204-15.856-1.702-23.596-6.346-6.602-6.979-8.634-14.625-8.519-24.023.822-8.146 6.406-12.623 12.344-17.723C793 520 793 520 795 519l-.437-3.062L793 505a852 852 0 0 1 5.25-1.5l2.953-.844C804 502 804 502 808 502"/><path fill="#F8F9F9" d="M528.595 588.773h3.195c3.474 0 6.947.016 10.42.032l7.24.008c6.342.008 12.684.028 19.027.05 6.475.02 12.95.03 19.425.04q19.05.032 38.098.097v2l-7 2v2l-3.367 1.574c-7.928 3.714-15.825 7.464-23.633 11.426q-2.812 1.408-5.625 2.812l-3.04 1.52-7.233 3.617-2.039 1.02-4.126 2.06c-3.098 1.547-6.19 3.1-9.273 4.674l-3.039 1.547-2.586 1.328L552 628l-2.131 1.043c-6.895 3.113-12.99 3.565-20.494 3.457-1.08.015-2.16.03-3.273.047-7.861-.038-13.38-1.285-19.344-6.512-5.08-6.138-7.28-10.384-7.063-18.476.732-6.145 3.379-10.126 8.18-13.934 6.528-4.73 12.95-4.909 20.72-4.852"/><path fill="#F9FAFA" d="M1333 889c28 0 28 0 38 3l1 3 2.332.93c4.683 1.878 7.044 5.905 9.668 10.07 3.204 8.08 3.643 19.167.875 27.438-3.185 6.846-8.038 13.124-14.875 16.562-11.876 3.393-24.649 2-37 2z"/><path fill="#7F8081" d="M1450.75 904.875C1454 907 1454 907 1456 909l1-6h8q.176 11.136.26 22.272c.025 3.449.06 6.896.117 10.344.065 3.972.09 7.943.111 11.915l.078 3.72c.003 8.332-1.392 13.314-7.106 19.385-4.84 4.521-11.702 5.664-18.085 5.864-8.594-.332-13.024-2.801-18.875-9-3.5-3.93-3.5-3.93-3.5-8.5 5.094-.615 5.094-.615 8 0 1.838 1.617 3.173 3.356 4.645 5.309 1.897 2.367 3.4 3.058 6.355 3.691 6.272.617 10.84-.24 16-4 4.4-5.363 3.263-12.424 3-19l-1.773 2.387c-3.538 4.152-7.33 5.23-12.653 5.933-6.345.296-11.032-1.321-16.574-4.32v-2h-2c-3.767-4.497-6.757-9.038-7-15l-.113-2.379c-.223-7.863 1.234-13.291 6.113-19.621 7.763-7.603 18.474-10.216 28.75-5.125"/><path fill="#848688" d="M1562.902 903.309c5.99 3.583 5.99 3.583 8.098 5.691l1-6h9q.037 10.44.055 20.88.008 3.555.02 7.11.017 5.097.023 10.194l.015 3.232v2.972l.007 2.632C1581 952 1581 952 1580 953c-2.67.141-5.324.042-8 0l-1-7-1.375 1.5C1568 949 1568 949 1566 949v2c-3.961 1.862-7.137 2.27-11.5 2.25l-3.344.016c-6.39-.538-11.058-3.44-15.156-8.266-4.835-8.301-6.526-16.244-4.406-25.629 2.268-6.879 6.489-11.3 12.406-15.371 6.096-2.941 12.658-3.507 18.902-.691"/><path fill="#808182" d="M2099.7 903.754c3.796 1.79 5.667 3.454 7.3 7.246h2v-8h8v49h-8l-1-6-2.687 2.375c-5.183 4.58-10.456 5.124-17.168 5.008-6.235-.76-11.223-3.412-15.582-7.883L2071 943l-1.687-2.437c-1.548-3.02-1.999-5.17-2.313-8.563l-.23-2.477c-.378-7.252.999-12.575 5.23-18.523 7.833-8.222 16.56-10.357 27.7-7.246"/><path fill="#818282" d="M1796 903v2l1.688.25c3.01.976 4.934 2.702 7.312 4.75l-.062-2.937C1805 904 1805 904 1806 903h7v50h-8v-7l-1.645 1.277-2.168 1.66-2.144 1.653c-5.286 3.649-11.898 2.92-18.043 2.41-7.62-2.04-11.854-7.566-15.875-14-2.537-6.644-2.53-16.44.063-23.062 7.32-11.865 17.054-16.488 30.812-12.938"/><path fill="#F8FAFA" d="m2259 777 18.063-.125 5.66-.055 4.5-.015 2.312-.031c8.602-.003 15.188 2.133 21.465 8.226 3.753 5.864 3.716 12.171 3 19-1.02 2.867-1.02 2.867-2 5h-2v2c-1.61 1.254-1.61 1.254-3.75 2.563l-2.11 1.316c-3.36 1.76-6.406 2.247-10.174 2.235h-2.398c-1.233-.009-1.233-.009-2.49-.016l-2.31-.003c-2.84-.006-5.679-.02-8.518-.033L2259 817z"/><path fill="#818283" d="M1195 905c2.612 1.746 4.972 3.59 7 6v2h2c3.562 4.345 3.486 8.459 3.438 13.813l.06 2.33c-.006 6.828-1.968 11.918-6.428 17.1l-1.945 1.632-1.93 1.68c-6.505 4.282-13.689 4.046-21.195 3.445-5.258-1.202-9.165-4.352-13-8v-2h-2c-2.92-9.14-4.992-17.979-1.04-27.121 7.466-13.499 21.25-16.936 35.04-10.879"/><path fill="#F9FAFA" d="m2269.703 717.797 2.291-.017q2.4-.014 4.801-.02c2.432-.01 4.863-.04 7.295-.072q2.337-.01 4.676-.016l2.182-.038c5.133.023 8.542 1.13 13.052 3.366v2l1.875.688c2.837 1.752 3.128 3.154 4.125 6.312.63 5.86.807 11.2-1.625 16.625-2.65 2.65-4.914 3.962-8.375 5.375l-2.169 1.066c-3.745 1.236-7.298 1.182-11.194 1.13l-2.4-.01c-2.517-.01-5.033-.036-7.55-.061q-2.567-.016-5.134-.027c-4.185-.02-8.368-.06-12.553-.098v-35c3.611-1.204 6.942-1.181 10.703-1.203"/><path fill="#808181" d="M2018 889c28 0 28 0 36 3 2.313 2.375 2.313 2.375 4 5l1.75 2.125c2.189 5.035 2.305 10.785.523 16.004-3.167 5.96-8.143 9.404-14.273 11.871-3.47.354-6.891.284-10.375.188L2026 927v25h-8z"/><path fill="#858686" d="M1976.156 908.023c6.689 7.17 6.844 12.993 6.844 22.977h-39c2.268 7.319 2.268 7.319 7 12 6.563 2.297 11.674 2.366 18.375.25 2.243-1.725 2.788-3.599 3.625-6.25h9c-.324 5.34-3.233 8.506-7 12-5.566 4.417-11.592 4.661-18.516 4.453-6.465-.84-11.385-3.3-15.921-7.953L1939 943l-1.687-2.562c-3.514-6.525-3.331-14.912-1.735-22.008 2.62-6.838 7.895-12.387 14.586-15.407 9.422-2.57 18.606-1.503 25.992 5"/><path fill="#868889" d="m2275.313 902.813 3.863-.043c3.99.24 7.05.995 10.824 2.23v2l1.75.625c3.9 2.383 5.648 6.05 7.5 10.125.75 3.25.75 3.25.75 13.25h-39c.685 9.472.685 9.472 4.188 11.5l2.812.5 3.438 1.125c4.736 1.163 7.921 1.677 12.374-.5 2.284-1.441 2.284-1.441 3.188-3.625h2v-3h10c-2.649 7.504-5.926 11.59-13 15-6.056 1.925-13.928 2.167-19.875-.187-6.02-3.493-11.313-7.72-13.723-14.493-.598-3.452-.546-6.89-.527-10.383l-.012-2.181c.006-3.183.123-5.715 1.137-8.756h2v-4h2l.688-1.75c1.89-3.242 4.434-5.588 8.019-6.852 3.217-.558 6.342-.57 9.606-.586"/><path fill="#838483" d="M1333 889c28 0 28 0 38 3l1 3 2.332.93c4.683 1.878 7.044 5.905 9.668 10.07 3.204 8.08 3.643 19.167.875 27.438-3.185 6.846-8.038 13.124-14.875 16.562-11.876 3.393-24.649 2-37 2zm8 7v49c16.012 1.19 16.012 1.19 29.496-5.121l1.941-2.317c.66-.761 1.318-1.523 1.997-2.308 4.334-6.237 3.346-15.933 2.566-23.254-1.875-6.804-6.044-10.3-11.914-13.906-8.13-4.263-12.57-2.094-24.086-2.094"/><path fill="#193357" d="M894 812c3.423 1.557 6.157 3.556 9 6l2.438 2.063c4.319 5.356 4.147 11.377 3.562 17.937-2.013 7.224-6.45 10.555-12.371 14.633-4.751 2.47-9.432 2.258-14.629 1.367-5.904-2.658-10.946-6.599-13.45-12.695-1.407-5.892-1.531-12.42.513-18.18 5.861-9.454 14.064-12.708 24.937-11.125"/><path fill="#F5F7F7" d="m1366 729 3 1c.764 2.049 1.507 4.108 2.143 6.2.943 3.08 2.005 6.103 3.091 9.136l1.231 3.45 1.285 3.589 1.328 3.718c2.918 8.156 5.879 16.294 8.94 24.397 1.982 5.296 1.982 5.296 1.982 7.51h-43c.735-3.674 1.505-6.61 2.809-10.05 2.228-6.001 4.253-12.058 6.254-18.138 2.19-6.656 4.434-13.266 6.937-19.812q1.099-2.999 2.188-6l1.042-2.875z"/><path fill="#86898B" d="M2220.031 901.813c7.482-.41 12.307 1.814 17.844 6.75 5.967 8.06 4.37 20.687 4.25 30.125q-.016 2.092-.027 4.185A1881 1881 0 0 1 2242 953c-3.378.845-5.675 1.108-9 0l-.028-3.026a1248 1248 0 0 0-.18-11.17 553 553 0 0 1-.063-4.825 540 540 0 0 0-.12-6.956l-.003-2.16c-.147-5.054-1.461-7.946-4.606-11.863-3.927-2.979-8.474-2.324-13.16-1.723-2.45.41-2.45.41-5.84 1.723-2.355 4.077-2.325 8.3-2.379 12.89l-.051 2.259c-.053 2.367-.094 4.734-.133 7.101q-.064 3.572-.142 7.144a617 617 0 0 0-.08 4.437c-.103 5.057-.103 5.057-1.215 6.169-2.67.141-5.324.042-8 0q-.037-10.44-.055-20.88-.008-3.555-.02-7.11-.017-5.097-.023-10.194l-.015-3.232v-2.972l-.007-2.632c.12-1.98.12-1.98 1.12-2.98 2.67-.141 5.324-.042 8 0l1 5 2.688-2.437c3.462-2.851 5.918-3.342 10.343-3.75"/><path fill="#838687" d="M1860.074 903.89c3.57 2.057 6.63 4.682 8.926 8.11 1.051 4.746 1.132 9.405 1.098 14.242l-.005 2.329c-.005 2.434-.018 4.87-.03 7.304q-.008 2.488-.014 4.977-.017 6.075-.049 12.148-3.5.062-7 0c-1.96-1.96-1.231-5.713-1.281-8.395l-.056-2.253q-.088-3.582-.163-7.164-.103-4.698-.219-9.395l-.04-2.182c-.073-4.898-.073-4.898-1.241-9.611-5.217-3.304-10.982-3.86-17-3-3.125 1.675-5.393 3.785-7 7a209 209 0 0 0-.316 7.852l-.063 2.345q-.097 3.714-.184 7.428l-.13 5.031q-.161 6.173-.307 12.344h-9v-50h9v6h2l.625-1.812c4.71-7.494 15.309-6.331 22.45-3.297"/><path fill="#808181" d="M1739.574 902.684c6.678 2.405 10.254 5.083 13.539 11.485 1.174 3.746 1.135 7.312 1.082 11.194l-.008 2.4c-.011 2.517-.037 5.033-.062 7.55q-.016 2.567-.027 5.134A2738 2738 0 0 1 1754 953c-3.478 1.16-5.459.708-9 0l-.044-3.241c-.058-3.974-.135-7.947-.218-11.92a844 844 0 0 1-.084-5.156 821 821 0 0 0-.142-7.417l-.02-2.324c-.116-4.226-.39-6.937-3.492-9.942-3.81-2.064-7.027-2.22-11.312-2.125l-3.239.055-2.449.07v2l-4 4c-1.158 3.475-1.228 6.673-1.316 10.293l-.063 2.14q-.097 3.377-.184 6.755l-.13 4.583q-.16 5.615-.307 11.229h-8v-49h8v6h2v-2c6.83-3.92 11.545-6.449 19.574-4.316"/><path fill="#848586" d="M1217 903h9l.06 3.042c.076 3.737.165 7.473.257 11.21q.058 2.423.105 4.844c.046 2.327.104 4.652.164 6.978l.035 2.176c.116 3.98.507 7.205 2.379 10.75 4.391 2.573 9.982 3.684 15 3 3.682-1.713 5.966-3.49 8-7 .325-2.753.488-5.292.512-8.047l.054-2.337c.054-2.455.088-4.91.121-7.366q.05-2.502.104-5.004.126-6.123.209-12.246h8v49h-8v-5l-2-1-.562 1.813c-2.145 3.264-4.768 4.306-8.438 5.187-5.657.629-10.347.827-15.5-1.75L1224 949l-2.187-1.812c-4.509-5.442-5.25-10.727-5.106-17.528l.013-2.324c.017-2.425.054-4.849.092-7.274q.024-2.481.042-4.962c.032-4.034.084-8.067.146-12.1"/><path fill="#F9FAFB" d="M1188 910c5.097 2.49 8.51 5.901 11 11 1.105 7.191.736 13.404-3.516 19.414-4.459 4.764-8.19 5.284-14.574 5.64-4.599-.086-6.967-1.37-10.375-4.324-4.401-4.816-4.131-10.147-3.898-16.406.537-4.92 1.691-8.216 4.8-12.136 5.096-3.873 10.355-4.174 16.563-3.188"/><path fill="#F9FAFA" d="M2098 910c4.477 1.72 7.07 4.655 9.438 8.75 2.524 5.779 2.213 10.89.562 16.875-2.633 4.444-5.614 7.622-10 10.375-5.397.964-10.21-.474-15-3-4.349-3.593-6.549-6.584-7.29-12.187-.4-6.753 1.23-12.35 5.29-17.813 5.28-4.011 10.623-3.88 17-3M1797.438 911.75c4.28 3.758 7.154 7.513 7.789 13.324.25 6.726-1.162 11.602-5.727 16.739-4.6 4.024-7.147 4.588-13.07 4.425-4.897-.48-7.5-3.027-10.743-6.488-4.243-5.91-3.574-12.818-2.687-19.75 1.22-4.413 3.19-6.498 7.125-8.937 5.904-2.032 11.743-2.149 17.313.687M1564.813 911.063c4.332 3.837 6.808 6.415 7.675 12.19.285 7.542-.278 13.97-5.488 19.747-5.035 3.195-10.165 3.917-16 3-5.1-2.256-7.62-5.651-10.082-10.504-1.838-4.998-1.858-9.724-.148-14.766 1.792-3.848 3.846-7.086 7.23-9.73 5.367-1.72 11.539-1.93 16.813.063M1449.875 911.125c4.633 4.088 6.745 8.375 7.398 14.39.255 6.848-.677 11.289-5.273 16.485-4.17 3.693-9.568 4.296-15 4-2.901-.978-4.513-2.095-7-4l-1-3h-2c-3.157-5.224-2.696-11.11-2-17 1.802-4.639 4.612-8.514 9-11 5.177-1.726 10.768-1.873 15.875.125"/><path fill="#828383" d="M1641 889h36v7h-27v21h23v7h-23l.035 6.09.02 5.818q.008 2.026.02 4.054.017 2.907.023 5.815l.016 3.54C1650 952 1650 952 1649 953c-3.5.125-3.5.125-7 0-1-1-1-1-1.12-3.512l.006-3.385v-3.822l.016-4.16.005-4.233q.006-5.58.024-11.161.016-6.69.023-13.381c.01-6.782.029-13.564.046-20.346"/><path fill="#7F8081" d="M1919 906c2.75 2.438 2.75 2.438 5 5l1.813 2.063C1927 915 1927 915 1927 919c-3.073.355-5.942.53-9 0-2.312-2.875-2.312-2.875-4-6-3.259-2.22-6.184-2.298-10.062-2.312l-3.16-.051c-3.13.41-3.801 1.029-5.778 3.363h-2l-1 4h-2c-.643 11.413-.643 11.413 3 22l.813 2.375c1.133 1.9 1.133 1.9 3.812 2.375l3.375.25 1.996.156c4.608.21 7.408-.26 11.004-3.156l1.75-2.687c2.25-2.313 2.25-2.313 4.5-2.633 2.27.007 4.491.103 6.75.32-1.47 6.03-4.47 10.717-9.715 14.11-6.706 3.005-14.872 2.993-21.91 1.234-6.23-2.442-10.15-6.535-13.488-12.25-3.333-7.87-1.772-17.05.113-25.094l1-2h2l.625-1.687c2.238-3.764 5.365-6.756 9.645-7.942 8.07-1.097 16.62-1.758 23.73 2.629"/><path fill="#818283" d="M1102 889c3.073-.355 5.938-.502 9 0 3.63 3.817 4.8 8 6 13h2l.734 1.688A296 296 0 0 0 1127 919c2.693-2.342 3.742-4.474 4.938-7.812 1.58-4.167 3.568-7.487 6.062-11.188 1.13-2.636 2.064-5.285 3-8h2v-3h10c-1.353 3.573-2.947 6.855-4.812 10.188a243 243 0 0 0-6.825 13.269C1140 915 1140 915 1138.168 917.449c-6.905 9.634-6.172 19.94-6.074 31.425C1132 951 1132 951 1131 952c-2.67.141-5.324.042-8 0l-.028-1.753c-.323-15.914-2.677-26.776-10.8-40.528-2.32-3.939-4.511-7.941-6.672-11.969l-1.062-1.952c-2.438-4.56-2.438-4.56-2.438-6.798"/><path fill="#868889" d="M2166 890h9v13h12v7h-12q.177 6.78.372 13.562.065 2.308.125 4.615.088 3.315.187 6.628l.05 2.09c.074 3.676.074 3.676 1.266 7.105 2.586.468 2.586.468 5.563.625l3.066.227L2188 945q.061 3.5 0 7c-1.78 1.78-4.276 1.256-6.687 1.313-6.315-.053-9.48-1.474-13.947-5.95-1.959-3.389-1.738-6.61-1.659-10.41l.013-2.337c.017-2.456.054-4.91.093-7.366q.022-2.502.04-5.004.052-6.123.147-12.246h-6v-7h6zM1503 890h8v13h13v7h-12q.177 7.023.372 14.044.066 2.391.125 4.781.088 3.43.187 6.859l.05 2.171c-.184 3.36-.184 3.36 1.266 6.145 1.849.234 3.705.413 5.563.563l3.066.253L1525 945v8c-4.77 1.414-9.192 1.217-14 0-3.922-2.349-6.544-4.63-8-9a193 193 0 0 1-.098-7.73l.005-2.274c.005-2.395.018-4.79.03-7.183q.008-2.438.014-4.874.017-5.97.049-11.939h-6v-7h6z"/><path fill="#80807F" d="M1596.848 884.902 1603 885q.034 13.078.052 26.155.007 6.072.023 12.144.016 5.855.02 11.71.003 2.238.01 4.477.01 3.125.009 6.25l.006 3.6C1603 952 1603 952 1602 953c-2.67.141-5.324.042-8 0q-.034-13.078-.052-26.155-.007-6.072-.023-12.144-.016-5.855-.02-11.71-.003-2.238-.01-4.477a1696 1696 0 0 1-.009-6.25l-.006-3.6c.163-3.613.163-3.613 2.968-3.762"/><path fill="#808182" d="M1976.156 908.023c6.278 6.73 6.959 13.12 6.844 21.977h-13l1-3h-27v-2l30-1c-1.486-6.345-1.486-6.345-5-11-5.05-2.463-10.488-2.721-16-2-4.47 2.384-6.393 6.032-8.691 10.39L1943 923h-4l-1 7h-1c-1.81-12.06-1.81-12.06 2-18 4.41-4.975 8.813-8.934 15.55-9.875 8.71-.444 14.854-.047 21.606 5.898"/><path fill="#838587" d="M2335 902v9l-2.047.297c-6.932 1.064-6.932 1.064-11.953 5.703-1.527 3.055-1.24 6.276-1.316 9.633l-.063 2.278q-.097 3.608-.184 7.214l-.13 4.887q-.161 5.994-.307 11.988h-9q-.037-10.44-.055-20.88-.008-3.555-.02-7.11-.017-5.097-.023-10.194l-.015-3.232v-2.972l-.007-2.632c.12-1.98.12-1.98 1.12-2.98 2.67-.141 5.324-.042 8 0l1 5 1.25-1.375c3.913-3.634 8.462-4.625 13.75-4.625"/><path fill="#F7F8F9" d="m2026 896 8.125-.187 2.524-.083c4.856-.054 8.182.517 12.351 3.27 2.994 2.994 3.454 5.319 3.5 9.5-.135 5.085-.135 5.085-2.75 8.063L2047 918l-1.625 1.082c-3.661 1.415-7.241 1.126-11.125 1.043L2026 920z"/><path fill="#828383" d="M1300 902v8c-6.679 1.964-6.679 1.964-9.812 2.313L1288 913c-1.261 2.362-1.261 2.362-2 5l-2 3c-.37 3.298-.37 3.298-.414 7.074l-.059 2.072c-.06 2.18-.106 4.36-.152 6.542q-.057 2.22-.117 4.439-.142 5.436-.258 10.873h-8v-49h8v6h2v-2c1.556-.846 3.12-1.676 4.688-2.5l2.636-1.406c2.794-1.142 4.692-1.309 7.676-1.094"/><path fill="#7F8080" d="M2131 903h7l2 6 2.313-2.437c4.118-3.927 7.19-3.667 12.687-3.563v8l-1.793.262c-5.548.986-8.554 2.172-12.207 6.738-1.5 3-1.239 6.12-1.316 9.414l-.063 2.211q-.097 3.5-.184 7l-.13 4.742q-.16 5.816-.307 11.633-3.5.062-7 0c-1-1-1-1-1.12-2.98l.006-2.632v-2.972l.016-3.232.005-3.292c.005-3.485.018-6.97.03-10.455q.008-3.534.014-7.068.017-8.685.049-17.369"/><path fill="#818182" d="M1852.688 902.688c4.927.056 7.504 1.036 11.312 4.312l2.813 2.375c4.022 4.827 3.327 10.83 3.285 16.867l-.005 2.329c-.005 2.434-.018 4.87-.03 7.304q-.008 2.488-.014 4.977-.017 6.075-.049 12.148-3.5.062-7 0c-1.96-1.96-1.231-5.713-1.281-8.395l-.056-2.253q-.088-3.582-.163-7.164-.103-4.698-.219-9.395l-.04-2.182c-.073-4.898-.073-4.898-1.241-9.611-5.226-3.31-10.973-3.844-17-3-3.836 1.953-6.498 4.944-8 9h-2c.688-3.375.688-3.375 2-7 2.625-1.437 2.625-1.437 5-2v-2l8-1-.562-1.937L1847 904c1.631-1.631 3.442-1.249 5.688-1.312"/><path fill="#7C7C7D" d="M1253 903h8v49h-8v-5l-2-1-.562 1.813c-2.095 3.187-4.87 4.245-8.438 5.187-3.486.352-6.794.603-10-1v-2l2.117.035 2.758.028 2.742.035c2.4.064 2.4.064 4.383-1.098l-9-1v-1l1.793-.332c5.46-1.096 9.757-2.221 13.808-6.267 1.974-3.388 1.878-6.63 1.91-10.448l.055-2.337c.054-2.455.088-4.91.121-7.366q.05-2.502.104-5.004.126-6.123.209-12.246"/><path fill="#828485" d="M1377 903c4 0 4 0 5.625 1 4.837 7.035 3.936 16.891 3.375 25-1.431 7.588-6.427 14.238-12.437 18.938-3.404 2.24-6.467 2.904-10.563 3.062l-3-1a60 60 0 0 0-4.012-.098l-2.295.01-2.38.025-2.417.014q-2.947.02-5.896.049l1-3 3 1v-2h-5v-1l3.656-.113q2.423-.099 4.844-.2l2.398-.068c6.486-.292 12.286-1.267 17.38-5.521.547-.672 1.095-1.344 1.66-2.035l1.714-2.028c2.63-3.972 2.583-8.11 2.91-12.785l.254-3.547L1377 916h1v11c2.45-5.801 1.705-9.41-.176-15.352-.793-2.548-1.43-5.008-1.824-7.648z"/><path fill="#838586" d="M2271 903c6.705-.198 12.652-.308 19 2v2l1.75.625c3.9 2.383 5.648 6.05 7.5 10.125.694 3.009.827 5.389.797 8.453l-.02 2.724c-.01.684-.018 1.368-.027 2.073-21.053.19-21.053.19-31.25-.375-1.263-.07-2.527-.14-3.828-.21C2262 930 2262 930 2260 928l3-1-2-2 30-1-1-7h-2a142 142 0 0 1-5-5c-1.74-1.74-4.194-1.372-6.562-1.562l-3.067-.254L2271 910v-2h3v-3h-3z"/><path fill="#86898A" d="M1479 903h9v50h-9z"/><path fill="#818282" d="M1687 903h9v50h-8c-1-1-1-1-1.12-2.98l.006-2.632v-2.972l.016-3.232.005-3.292c.005-3.485.018-6.97.03-10.455q.008-3.534.014-7.068.018-8.685.049-17.369"/><path fill="#7B7C7C" d="M1333 889c28 0 28 0 32 2v2l-30-1c.366 7.12.366 7.12.748 14.238.302 6.36.091 12.45-.748 18.762h2l-1 3a93 93 0 0 0-.187 5.438l-.043 2.87c.237 2.77.933 4.28 2.23 6.692q.254-6.5.5-13l.145-3.7c.68-11.28.68-11.28-.27-22.487-.372-3.783-.127-5.515 1.625-8.813h1l1 50 5 1v2h-3l-1 2 20-1v3h-30z"/><path fill="#7F8080" d="M1397 903h8v50h-8z"/><path fill="#F8F9FA" d="M1963 910c3.862.933 6.533 2.557 9.438 5.313C1974 918 1974 918 1974 924h-30c1.106-6.634 1.686-7.481 6-12 4.279-2.853 7.98-2.488 13-2"/><path fill="#F6F8F8" d="M2282 910c2.769 1.382 3.941 2.598 6 5v2h2l1 7h-30c0-5.52.644-6.828 4-11 5.367-3.891 10.58-3.953 17-3"/><path fill="#C1CAD1" d="m2118.836 692.876 2.54.01h2.66c2.916 0 5.833.009 8.75.016l6.048.005q7.978.006 15.955.024 8.134.014 16.268.02 15.97.016 31.943.049v1l-88 1v144h-1c-.811-29.704-1.276-59.406-1.558-89.12q-.086-8.843-.185-17.685-.074-6.88-.139-13.76-.031-3.27-.07-6.538-.048-4.497-.086-8.995l-.034-2.708c-.014-2.065.023-4.13.072-6.194 1.834-1.834 4.396-1.12 6.836-1.124"/><path fill="#898C8E" d="m1747 914 4 2-.062 2.25c.055 2.455.369 4.411 1.062 6.75l1-8h1v36c-3 1-3 1-9 0l-1-37h3z"/><path fill="#7E7F80" d="M2289 937h10c-2.649 7.504-5.926 11.59-13 15-6.056 1.925-13.928 2.167-19.875-.187-4.583-2.659-8.144-5.342-11.125-9.813l1-4 6 7 1-1c3.746.22 7.476.504 11.21.86 4.832.361 7.872.395 11.79-2.86l1-2h2z"/><path fill="#85888C" d="M1596.848 884.902 1603 885q.034 13.078.052 26.155.007 6.072.023 12.144.016 5.855.02 11.71.003 2.238.01 4.477.01 3.125.009 6.25l.006 3.6C1603 952 1603 952 1602 953c-2.67.141-5.324.042-8 0q-.034-13.078-.052-26.155-.007-6.072-.023-12.144-.016-5.855-.02-11.71-.003-2.238-.01-4.477a1696 1696 0 0 1-.009-6.25l-.006-3.6c.163-3.613.163-3.613 2.968-3.762M1597 888c-.982 2.946-1.104 4.788-1.062 7.852l.023 2.828.039 2.945q.038 2.895.063 5.79l.035 2.591C1596 912 1596 912 1595 913a234 234 0 0 0-.098 8.629l.005 2.619c.005 2.771.018 5.543.03 8.314q.008 2.813.014 5.624.017 6.907.049 13.814h7l-.217-2.387c-1.005-12.678-.894-25.34-.845-38.05q.008-3.44.013-6.877.017-8.343.049-16.686z"/><path fill="#838586" d="M1973 937h9c-.324 5.34-3.233 8.506-7 12-5.623 4.462-11.648 4.586-18.633 4.406-4.592-.554-7.495-1.928-11.367-4.406l1-3 1 2c1.895.465 1.895.465 4.063.625L1955 949v-3l3.625.25c4.467.032 6.822-1.543 10.375-4.25h2z"/><path fill="#8A8C8E" d="M1641 889h31v1h-30v59c1.286-1.06 1.286-1.06 1.098-3.504l-.035-3.058-.028-3.067L1643 937h2v-2l3-1 1-9h1c.029 4.48.047 8.958.063 13.438l.025 3.876.01 3.682.016 3.412C1650 952 1650 952 1649 953c-3.5.125-3.5.125-7 0-1-1-1-1-1.12-3.512l.006-3.385v-3.822l.016-4.16.005-4.233q.006-5.58.024-11.161.016-6.69.023-13.381c.01-6.782.029-13.564.046-20.346"/><path fill="#7F8080" d="M1573 904h7v24l-5-2-1 4h-1l-.297-2.012c-.92-5.439-1.83-8.856-5.703-12.988v-2h-2l1-3 7 2z"/><path fill="#818285" d="M1418 959c5.094-.615 5.094-.615 8 0 1.842 1.621 3.166 3.346 4.617 5.32 1.805 2.192 3.742 2.774 6.383 3.68l1 3h-2v2c3.473 1.158 6.36 1.069 10 1l-2-1v-2l9-1-2 2 2 2c-7.298 2.74-15.958 3.752-23.312.563-4.712-2.803-8.676-7.014-11.688-11.563z"/><path fill="#7E7E7E" d="M2173 910h1l1 30-3 1-2-2h-3c-1.056-5.763-.948-11.106-.562-16.937l.158-2.65q.194-3.208.404-6.413l1.875-.375c2.316-.497 2.316-.497 4.125-2.625"/><path fill="#848585" d="m2047 892.188 2.625.73c2.76 1.257 3.687 2.618 5.375 5.082q1.99.544 4 1c2.227 3.34 2.271 4.533 2.25 8.438l.016 2.87c-.269 2.718-.88 4.367-2.266 6.692l-4-1v-7h-2l-1 2-.262-2.082c-.698-5.712-.698-5.712-4.238-9.918l-2.5-1-2-2 2-1c-1.066-1.296-1.066-1.296-3.562-1.062L2039 894v-2c3.449-1.15 4.584-.814 8 .188"/><path fill="#7C7D7E" d="m1803 938 2 1c-1.515 5.764-2.629 9.777-8 13-3.316 1.105-5.885 1.168-9.375 1.188l-3.398.042c-3.176-.226-5.37-.876-8.227-2.23v-3l7 1v2l2-2-3.437-1.875c-3.438-1.875-3.438-1.875-4.563-4.125a85 85 0 0 1 7 2c5.056.53 8.882.59 13.438-1.812 2.899-2.474 2.899-2.474 5.562-5.188M1349.875 892.688c6.895.145 14.348 1.46 20.125 5.312v-4c5.638 1.311 7.854 3.329 11 8l-1 3-3-1 1.438 6.25.808 3.516c.428 1.836.873 3.67 1.371 5.488.543 2.476.098 4.34-.617 6.746l-2 1-.297-3.035c-.773-7.109-1.522-12.973-5.703-18.965v-2l-1.797-.875c-1.866-.953-3.669-2.027-5.453-3.125-6.335-3.24-13.773-3.357-20.75-4 2-2 2-2 5.875-2.312"/><path fill="#858687" d="M1217 903h9v29h-1v-28h-7l1 2 4-1c1.152 4.582 1.149 8.997 1.125 13.688l.012 2.337c-.01 5.722-.01 5.722-1.137 7.975h-2l-1 2c-.573-4.699-1-9.263-1-14l-1-1v6h-1z"/><path fill="#7D7D7D" d="M2198 923c2 2 2 2 2.16 3.875l-.097 2.125c-.159 3.118-.159 3.118.937 6 1.273-3.648 2.328-7.194 3-11h1v28h-7z"/><path fill="#828383" d="M1898 904v2l2.313-1.125L1903 904l3 2-5 2 6 1v1l-1.863.113-2.45.2-2.425.175c-2.65.6-3.467 1.548-5.262 3.512h-2l-2 4-5-1-1 5h-1v-5h-2l1-4h2l.625-1.687c2.873-4.832 6.583-8.165 12.375-7.313"/><path fill="#7C7C7D" d="M1218 904h7l.573 20.89.275 10.016c.09 3.366.152 6.726.152 10.094h-3l-1.375-3.437c-1.196-3.61-1.196-3.61-3.625-4.563a80 80 0 0 1-.687-7.187l-.262-3.981c-.046-3.45.252-6.464.949-9.832l2 1v11l3 1v-23l-5 1z"/><path fill="#858A8F" d="M1694 903h2v50h-8v-6l5 3-.007-1.74q-.032-8.929-.048-17.858-.008-3.337-.02-6.673-.017-4.785-.023-9.569l-.015-3.033v-2.79l-.007-2.47C1693 904 1693 904 1694 903"/><path fill="#797A7C" d="m1162 915 2 3-2 3c-.318 3.1-.318 3.1-.25 6.5l-.016 3.469c.037 3.208.037 3.208 2.266 6.031l-.5-3.75c-.377-2.828-.5-5.366-.5-8.25h2v-5l2 1-.07 2.09c-.122 6.332.463 11.785 2.07 17.91l-4-1-1 2c-3-1-3-1-3.95-2.715-2.258-6.8-3.211-13.304-1.175-20.285 1.125-2 1.125-2 3.125-4"/><path fill="#37667C" d="M1910 777c2 1 2 1 2.91 3.61l.93 3.476 1.054 3.854c.181.67.362 1.34.55 2.03.895 3.264 1.853 6.51 2.81 9.757l1.15 3.937q.87 2.977 1.744 5.955c2.239 7.625 4.376 15.232 6.059 23.004.857 2.569 1.653 3.743 3.793 5.377h2v2h-5c-2.733-4.98-4.299-9.951-5.812-15.387l-.773-2.72q-1.214-4.29-2.415-8.58l-1.617-5.71a3732 3732 0 0 1-3.749-13.341c-.552-1.97-1.114-3.938-1.677-5.905l-.832-2.939-.68-2.37C1910 781 1910 781 1910 777"/><path fill="#747577" d="M1677 889v6h-9c1-2 1-2 4-3l-2.247.016q-5.033.029-10.065.047l-3.538.025-3.388.01-3.127.016C1647 892 1647 892 1644 891v58h-2v-59l14.688-.5 4.608-.158 3.653-.123 3.73-.127c2.776-.077 5.544-.11 8.321-.092"/><path fill="#747477" d="M1458 904h7v57h-3q-.037-10.035-.055-20.068-.008-3.41-.02-6.82-.017-4.916-.023-9.83l-.015-3.057c0-5.506.297-10.778 1.113-16.225l-5 1z"/><path fill="#7C7D7E" d="m2289 926-5 1 8 1c-3.619 3.619-9.091 2.874-14 3a207 207 0 0 1-8.625-.312l-2.118-.105c-5.012-.338-5.012-.338-7.257-2.583l3-1-2-2c3.916-.226 7.833-.428 11.75-.625l3.367-.195 3.242-.157 2.984-.158c2.767.14 4.312.71 6.657 2.135"/><path fill="#8B8D8F" d="M1692.125 883.125C1695 884 1695 884 1697 886c.375 2.938.375 2.938 0 6-2.127 2.363-3.413 2.928-6.562 3.313C1688 895 1688 895 1685 893c-.552-3.63-.426-5.36 1.625-8.437 2.375-1.563 2.375-1.563 5.5-1.438"/><path fill="#858788" d="M1484.063 883.188C1487 884 1487 884 1489 886c-.462 6.462-.462 6.462-3 9-2.937.375-2.937.375-6 0-1.937-1.687-1.937-1.687-3-4 .138-2.834.674-4.486 2.188-6.875 1.812-1.125 1.812-1.125 4.874-.937"/><path fill="#80807F" d="M1131 929h1c.029 3.646.047 7.292.063 10.938l.025 3.154.01 2.998.016 2.777C1132 951 1132 951 1131 952c-2.67.141-5.324.042-8 0-.467-8.089-.467-8.089 1.313-11.562C1126 939 1126 939 1129 939l1 2z"/><path fill="#818281" d="m1542 914 2 2-1.5 2.75c-2.288 5.21-1.747 10.676-1.5 16.25l-2-1c-.625-2.562-.625-2.562-1-5l-3 3c-2.444-6.325-2.444-6.325-1-10l1-2-3 1v-2h3l.375-1.937L1536 915c2-1 2-1 6-1"/><path fill="#858686" d="M1253 909h1l1 15 3-2c1.849 1.849 1.346 4.886 1.5 7.375.216 3.476.398 6.318 1.5 9.625h-2l-2 4c-2.787-2.787-2.974-4.864-3.062-8.75L1254 932h-1z"/><path fill="#797B7F" d="M1400.5 883.75c3.5.25 3.5.25 5.5 2.25.345 4.053.302 5.548-2 9-3.13.4-5.13.521-7.875-1.125-1.63-2.717-1.455-4.772-1.125-7.875 2-2 2-2 5.5-2.25"/><path fill="#808183" d="M1379 931h3c.875 2.5.875 2.5 1 6-2.424 4.454-5.666 8.323-10 11h-4c1-3 1-3 3-4.062l2-.938 1-2-5 1v2h-3v2l-3-1c2.476-2.653 4.59-4.68 8-6h3l.875-1.75z"/><path fill="#79797B" d="M1276 920h1v30h3l1-17h2v19h-8c-.03-4.396-.047-8.792-.062-13.187l-.026-3.776-.01-3.642-.016-3.349c.105-2.804.473-5.32 1.114-8.046"/><path fill="#7F8080" d="m1943 909 3 1c0 8.59 0 8.59-2.375 11.938C1942 923 1942 923 1939 923l-1 7h-1c-1.033-6.882-1.677-11.914 2-18 2-2 2-2 4-3"/><path fill="#8A8C8E" d="M1772 923h1l.043 2.344c.33 7.21 1.43 11.977 5.957 17.656h-3l-1 2-1-2-1 2c-4.488-4.027-5.377-6.824-5.812-12.875-.085-2.04-.155-4.083-.188-6.125l4 4z"/><path fill="#797A7B" d="m1138 913 1 3c-1.045 2.002-2.187 3.954-3.375 5.875-3.794 6.705-4.714 12.378-4.625 20.125l-2-1v-2l-3 1-1 7c-3.185-5.551-2.566-11.932-1-18h1v8h2c1.52-4.916 1.52-4.916 2-10h2l.875-2.75c.89-2.572 1.84-4.863 3.125-7.25h2z"/><path fill="#747477" d="M1595 913h2c1.256 12.41.751 24.568 0 37 3.075-.776 3.075-.776 5-3v5h-7z"/><path fill="#838383" d="m1513.16 902.902 3.902.035 3.91.028L1524 903v7l-15-1c0-5.97 0-5.97 4.16-6.098"/><path fill="#7E7E7E" d="M1890 915c1.21 3.632.628 5.065-.437 8.688l-.872 3.011L1888 929l-1.937-2.437c-1.469-1.838-1.469-1.838-3.063-3.563-.077 4.516-.102 8.59 1 13h-3c-1.108-6.867-.7-12.267 1-19h3v2l1-2h4z"/><path fill="#C3CED7" d="m2144 798 3 1q.039 3.125.063 6.25l.035 3.516C2147 812 2147 812 2146 816h58v1h-59z"/><path fill="#797B7D" d="m1946 946 1 2c1.895.465 1.895.465 4.063.625L1955 949v-3h11l-2 6c-7.736 1.308-12.278 1.185-19-3z"/><path fill="#7D7D7D" d="M1579 932h1v20h-7v-6l2-1 1 1c.151-3.629.151-3.629-1-7h2l.438-2.937C1578 933 1578 933 1579 932"/><path fill="#7E8081" d="M1419 937c3.08 2.773 4.688 5.063 6 9h4l1-2 3 3-1 3 11 1v2c-7.113.452-11.715-.672-18-4v-2h-2c-2.84-3.675-4-5.269-4-10"/><path fill="#7A7B7D" d="M1505 945h2v2l3 1v2l7-2v-2h7v6c-2.228.109-4.458.186-6.687.25l-3.762.14c-4.122-.453-5.733-1.395-8.551-4.39z"/><path fill="#8A8C8E" d="m1935 921 2 4 3-4v7c4.627 1.045 9.289 1.518 14 2v1h-10v6l-3-1v-2h-2v-2h-3l-1 2z"/><path fill="#D9DDE1" d="M1183 737c2.413 4.137 4.508 9.455 3.55 14.25L1186 753v-2c-2.33.959-2.33.959-4 4v-2l-4 2q.962-4.22 1.938-8.437l.552-2.432c1.397-6.018 1.397-6.018 2.51-7.131"/><path fill="#7F807F" d="M2115 935c2 2 2 2 2.195 5.477a289 289 0 0 1-.07 4.148l-.027 2.14A625 625 0 0 1 2117 952h-8l1-7h3z"/><path fill="#818284" d="M1921 908c2.28 2.171 4.306 4.338 6 7v4h-9l-2-5h2l-1-4 3 1z"/><path fill="#78797A" d="M2087 903c6.017-.321 10.84-.573 16 3l1 3-3 1v-3h-4l2 4-11-2 1-4z"/><path fill="#868788" d="M1416 922c2.152 3.228 2.2 4.284 2 8h2l2-3 .586 6.055c.278 2.172.278 2.172 2.414 3.945-.375 2.625-.375 2.625-1 5l-1.812-2c-2.063-2.337-2.063-2.337-5.188-2-1.129-5.361-1.097-10.553-1-16"/><path fill="#7B7C7E" d="M2073 926h2l1 7-5 1 2 7 3-1-2 4c-3-1-3-1-4.687-3-1.778-4.063-1.57-7.631-1.313-12h4z"/><path fill="#8F9193" d="m1164 915 2 4h2l-1 13h-1l.035-2.371c.01-1.012.018-2.024.027-3.067l.036-3.058c.188-2.444.188-2.444-1.098-3.504v5h-2l2 13-3-1c-1.94-15.27-1.94-15.27 2-22"/><path fill="#7C7D7E" d="M2155 903v8l-9 1v-2l7-1v-2c-2.416-.167-2.416-.167-5 0l-2 2c-2.625.625-2.625.625-5 1 1.01-2.665 1.94-3.952 4.188-5.75 3.436-1.527 6.091-1.469 9.812-1.25"/><path fill="#7C7C7C" d="M2271 903q2.843-.079 5.688-.125l3.199-.07c3.136.196 5.29.864 8.113 2.195v2l-3.437.438c-3.37.174-3.37.174-4.563 1.562a86 86 0 0 1-4.562.563l-2.504.253L2271 910v-2h3v-3h-3z"/><path fill="#888989" d="M1883 923c2 1 2 1 4 4l2-3 1 11h-3l-1 3h-3l-1 2-1-4 2-1-.562-2.062c-.523-3.51-.052-6.46.562-9.938"/><path fill="#898B8C" d="M1419 914c5.471 1.427 5.471 1.427 7.5 3.625.793 3.767-.402 6.714-1.5 10.375l-2-3h-4v-7l-2 1z"/><path fill="#8F9498" d="M1217 903h9v29h-1v-28h-7l1 2 4-1 1 4-5 2c-2.152-3.228-2.2-4.284-2-8"/><path fill="#8B8F92" d="m2166 936 1 3 4-1 1 3 3-1 .648 1.953c1.2 2.325 1.2 2.325 3.954 2.656l3.023.141 3.04.172L2188 945l-1 3v-2l-12 2-1-3-3-1-2-1v-3h-2v5h-1z"/><path fill="#838485" d="M1737 902c-3.75 3-3.75 3-6 3l-1 3c-1.937 1.125-1.937 1.125-4 2-2.167.833-2.167.833-3 3v-2l-2-1 1-2-2-1c6.404-3.676 9.572-5.12 17-5"/><path fill="#35667C" d="M2300 777c5.881.8 9.049 3.75 13 8 3.667 5.845 3.758 12.27 3 19l-2 3-.078-3c-.147-10.738-.147-10.738-4.922-20-2.312-1.81-4.646-3.376-7.172-4.871L2300 778z"/><path fill="#7C7E80" d="M1943 928h26l-1 3c-15.787.202-15.787.202-23-1z"/><path fill="#7A7A7C" d="M2033 890c2.71-.109 5.414-.188 8.125-.25l2.305-.102c5.352-.092 8.326.79 12.57 4.352 1.375 2.25 1.375 2.25 2 4h-4l-1.75-1.875c-4.789-4.523-11.316-4.343-17.562-4.195L2033 892z"/><path fill="#818180" d="M2238 926h1v24h-1l-.375-3.437L2237 943l-2-1c-.561-11.869-.561-11.869 3-16"/><path fill="#6F7177" d="M1486 913h1v39h-7v-5l1 3 4-2-.016-2.782q-.025-5.121-.039-10.243-.008-2.214-.02-4.429-.017-3.187-.023-6.374l-.016-3.872c.092-2.662.313-4.783 1.114-7.3"/><path fill="#79797A" d="M1183 903c6.402.29 10.714 1.3 16 5 1.938 2.25 1.938 2.25 3 4-4.72 0-6.27-1.288-10-4v3l-3-1v-4l-6-2z"/><path fill="#E4E9EC" d="M2040 787c1.302 3.906.478 6.195-.437 10.188l-.872 3.855L2038 804h-2a429 429 0 0 1-1.562-4.812l-.88-2.708C2033 794 2033 794 2034 791h2a89 89 0 0 0 4-2z"/><path fill="#848687" d="m1106 894 6 1c1.125 4.75 1.125 4.75 0 7l4 2-6 2c-.866-1.43-1.718-2.87-2.562-4.312l-1.442-2.426C1105 897 1105 897 1106 894"/><path fill="#7B7B7C" d="M2201.563 902.938 2205 903v8l-5 1v2h-2q-.29-2.468-.562-4.937l-.317-2.778L2197 904c1-1 1-1 4.563-1.062"/><path fill="#888A8E" d="M2057 898c2 1.313 2 1.313 4 4 .7 5.36.796 10.259-2 15l-4-1c-.125-3.375-.125-3.375 0-7l2-2 1 1c-.486-3.123-.999-5.996-2-9z"/><path fill="#3F6C80" d="m2060 707 2 2c-.2 2.29-.2 2.29-.828 5.121l-.676 3.084-.746 3.232c-.23 1.063-.461 2.126-.7 3.221-1.774 7.929-1.774 7.929-4.05 11.342-.202-6.505.426-12.184 1.938-18.5l.552-2.453c1.36-5.898 1.36-5.898 2.51-7.047"/><path fill="#838484" d="m1459 953 4 2c-.607 4.128-2.038 7.332-4 11l-5-2 2-6 2 1z"/><path fill="#747477" d="M1974 926c-3.719.863-7.143 1.117-10.957 1.098l-3.37-.01-3.486-.025-3.544-.014q-4.322-.018-8.643-.049v-2q5.925-.288 11.853-.537 2.017-.088 4.033-.187c1.93-.094 3.862-.173 5.794-.253l3.523-.158C1972 924 1972 924 1974 926"/><path fill="#ABB3B9" d="M1116 830c2 3 2 3 4 11h34v1l-35 1c-3.375-9-3.375-9-3-13"/><path fill="#37657B" d="M2012 811c2.273 2.273 2.636 3.595 3.508 6.648l.8 2.797.817 2.93.84 2.906c1.163 4.113 2.035 7.408 2.035 11.719h-2a1663 1663 0 0 1-3-10.125l-.867-2.883c-1.392-4.773-2.54-8.962-2.133-13.992"/><path fill="#427A8E" d="M1963 736c.867 3.163.995 5.484.563 8.75l-.31 2.422L1963 749h-2l.105 1.941c.187 5.975-.487 9.718-3.105 15.059-.691 2.779-.691 2.779-1 5h-1c-.247-6.541.46-11.827 2.375-18.062q.67-2.268 1.336-4.536l.655-2.2c.972-3.378 1.804-6.786 2.634-10.202"/><path fill="#E3E8EB" d="M833 573h1c1.062 7.587 1.062 7.587-1.453 10.934C827.905 588 827.905 588 824 588v-4h2l1-2c2.674-3.837 2.674-3.837 5-5 .652-2.025.652-2.025 1-4"/><path fill="#76797D" d="m1888 945 3 1v2c4.52 1.172 8.747 2.138 13.438 2H1908l2 2c-4.407 2.203-10.008 1.572-14.625.246-4.43-1.81-4.43-1.81-6.375-3.246-.746-2.14-.746-2.14-1-4"/><path fill="#7C7C7C" d="M1718 939v13h-7v-5l2-1 3 1-1-7c2-1 2-1 3-1"/><path fill="#37657B" d="M1981 763h1c-.57 6.405-1.683 12.32-3.437 18.5l-.659 2.453c-.568 2.035-1.229 4.045-1.904 6.047l-2 1c1.573-9.57 3.782-18.842 7-28"/><path fill="#376479" d="M1892 709c2 1 2 1 2.794 3.269l.749 2.973.814 3.23.83 3.403.866 3.379.802 3.238.74 2.98C1900 734 1900 734 1899 737c-3.909-8.969-7.293-18.105-7-28"/><path fill="#878A8C" d="M2286 924h6l.875 1.938c.953 2.214.953 2.214 3.125 3.062v2h-13v-1l7-1-12-1c3.991-1.996 5.7-2.195 10-2z"/><path fill="#747477" d="M1339 890q5.938-.042 11.875-.062l3.418-.026 3.262-.01 3.015-.016C1363 890 1363 890 1365 891v2l-26-1z"/><path fill="#E6EAEC" d="m640 843 3 1a260 260 0 0 1-1.312 4.438l-.739 2.496L640 853l-3 1-3-10h5z"/><path fill="#E0E5E8" d="M651 812h3c1.282 3.846.448 4.99-1.187 8.625l-1.293 2.977C650 826 650 826 647.824 826.836L646 827c.787-3.412 1.893-6.68 3-10l.563-2.312C650 813 650 813 651 812m-1 6v3Z"/><path fill="#DFE4E7" d="M928 582c2.25.125 2.25.125 5 1 2.313 3.063 2.313 3.063 4 6-1 2-1 2-2 3l1 3 1 3-2 2-.77-2.414c-1.756-5.41-3.464-10.608-6.23-15.586"/><path fill="#7A7B7C" d="M1419 917c.976 2.928 1.082 4.956 1 8h2l2-2c1.23 5.415 1.23 5.415.063 8.375L1423 933l-1-3-2 2v-2h-2c-.222-1.79-.427-3.582-.625-5.375l-.352-3.023L1417 919z"/><path fill="#878889" d="m2238 911 2 1c.043 1.666.04 3.334 0 5l-1 1c-.28 2.059-.447 4.117-.621 6.188L2238 926l-2 1 .125-3.375c.286-3.669.286-3.669-2.125-5.625l-2 1-1-3 5-2v-2z"/><path fill="#366379" d="M2340 813h1c.634 4.226-.068 6.565-2.5 9.938-3.309 4.061-6.971 8.357-11.5 11.062-2.242-.316-2.242-.316-4-1h3v-2l5-2v-2h2v-2h2l.813-2.062c1.348-3.335 2.762-6.635 4.187-9.938"/><path fill="#707277" d="M2204 924h1v28h-7v-2l5-1-.016-2.187q-.029-4.875-.046-9.75l-.026-3.444-.01-3.271-.016-3.031C2203 925 2203 925 2204 924"/><path fill="#858585" d="m2067 921 2 3 1.813-.625C2073 923 2073 923 2076 925c.188 3.125.188 3.125 0 6h-1v-5h-2l-1 5-3-1-2 2z"/><path fill="#737377" d="M2289 926c-5.265 1.179-10.314 1.184-15.687 1.188l-2.917.037-2.783.005-2.538.013C2263 927 2263 927 2261 925c3.916-.226 7.833-.428 11.75-.625l3.367-.195 3.242-.157 2.984-.158c2.767.14 4.312.71 6.657 2.135"/><path fill="#7D8084" d="M1533 920h2l-.562 3.5c-.755 6.007.273 11.607 1.562 17.5h-2c-2.863-6.322-3.901-12.047-3-19z"/><path fill="#7C7D7E" d="m2265 905 2 1-1.937 1.25c-2.273 1.928-2.665 2.864-3.063 5.75h2v-2l3-1c-1.498 3.112-3.2 6.053-5 9-1.648-2.967-2.745-5.594-3-9 1.734-3.12 2.56-3.853 6-5"/><path fill="#E7ECEF" d="M853 583h1l1 8h-3l2 2-4 5-3-1h-3l1.207-1.285c3.652-4.043 5.915-7.602 7.793-12.715"/><path fill="#E8ECEF" d="M496 564c.64 1.832.64 1.832 1 4-2.538 3.032-4.225 4.742-8 6l-3-1v-3c2.188-1.605 2.188-1.605 5-3.187l2.813-1.606z"/><path fill="#7D7D7F" d="m1198 918 3 1c.833 6.253 1.039 11.768 0 18l-3 1z"/><path fill="#7C7D7E" d="m1893 943 3.375.938c4.83 1.22 9.668 1.676 14.625 2.062v2c-7.095 1.167-11.809 1.127-18-3z"/><path fill="#727377" d="M1669 918h3v6l-22-1c4.248-2.124 7.168-2.238 11.75-2.125l2.113.027c1.713.024 3.425.06 5.137.098z"/><path fill="#8C8F90" d="m1890 910 2 1c.75 2.438.75 2.438 1 5l-2 2c-2.625-.375-2.625-.375-5-1l-1 5h-1v-5h-2l2-4v2h3l.938-1.937C1889 911 1889 911 1890 910"/><path fill="#7A7C7F" d="M1826 903c5.75-.125 5.75-.125 8 1v2h-5v4l4-3 1 4-6 1c-1.858-3.135-2.201-5.375-2-9"/><path fill="#85888C" d="M1782 902c9.41-.185 9.41-.185 14 1v2h3v3c-6.156-.931-11.608-1.794-17-5z"/><path fill="#818281" d="M1296 903h3v8h-8l2-4h2z"/><path fill="#757679" d="M1848 903c5.045-.359 8.852-.584 13.438 1.75 2.24 1.968 3.955 3.75 5.562 6.25-3.46-1.25-6.147-2.675-9-5l-2 1v-2h-9z"/><path fill="#78787A" d="M2282 946v2l-3 1 5 1v2c-1.605-.087-3.21-.196-4.812-.312l-2.708-.176c-2.794-.577-3.756-1.284-5.48-3.512v-1q2.188-.251 4.375-.5l2.46-.281C2280 946 2280 946 2282 946"/><path fill="#92989C" d="M1131 929h1v21h-1l-1-6-4 3v-8h3l1 2z"/><path fill="#78797B" d="m1548 909 2 1-5 5-3-1c1.991-2.987 2.766-3.787 6-5m-10 2 3 1 1 6-1-3h-5l-1 4h-2c1.186-3.375 2.276-5.647 5-8"/><path fill="#7A7B7D" d="M1852 908v1l-1.758.262c-5.838 1.05-9.082 2.476-13.242 6.738-1.373 2.15-1.373 2.15-2 4h-2c.688-3.375.688-3.375 2-7 2.625-1.437 2.625-1.437 5-2v-2c8.036-2.277 8.036-2.277 12-1"/><path fill="#818487" d="M2218 902c6.388-.532 11.787-.05 17 4 1.223 2.14 1.223 2.14 2 4-3 0-3 0-5.375-1.937-2.7-2.121-4.272-2.68-7.625-3.063v-2h-6z"/><path fill="#D8E1E5" d="M1949 785h1c.626 6.888-1.642 12.589-4 19-2.762-2.762-2.579-5.207-3-9l3-1 2-1-.062-2.875C1948 787 1948 787 1949 785"/><path fill="#E1E7EB" d="M2305 723c2.526 2.363 3.888 3.665 5 7 .07 2.228.085 4.458.063 6.688l-.028 3.574L2310 743h-1c-.928-4.333-.928-7.667 0-12-3.075.776-3.075.776-5 3l-1-3h2l-1-3c.438-2.687.438-2.687 1-5"/><path fill="#DDE2E6" d="m841 599 2 1-1 1 2 2 1 3-5 1v3a93 93 0 0 1-1 4c-2.612-8.327-2.612-8.327-2-12 2-1.812 2-1.812 4-3"/><path fill="#898E92" d="M1217 923h1v14l3 1c1.58 3.283 2.848 6.545 4 10-3.79-1.633-5.45-3.504-7.25-7.293-1.583-5.714-1.025-11.83-.75-17.707"/><path fill="#F9FBFA" d="M2306 738h3c.492 6.4.492 6.4-2 9.438l-2 1.562c-1.507-3.013-1.178-5.683-1-9z"/><path fill="#37677D" d="M2307 696c6.72.373 12.406 2.142 18 6 1.29 2.168 1.29 2.168 2 4l-2.344-1.242c-5.853-3.028-11.176-5.512-17.656-6.758z"/><path fill="#94989B" d="m1453 970-2 2 2 2c-4.463 1.723-8.102 2.222-12.875 2.125l-3.492-.055L1434 976v-1l12-1-2-1v-2c3.196-1.065 5.657-1.074 9-1"/><path fill="#8C8F91" d="M1181.188 901.875 1185 902l-1 2 2.438.688L1189 906c.813 2.625.813 2.625 1 5l-3-1v-2l-6-1v-3h-7c3.089-2.06 3.71-2.239 7.188-2.125"/><path fill="#737578" d="m1883 916 2 1-1 2a127 127 0 0 0-.625 5.813c-.095 1.037-.19 2.075-.29 3.144-.08 2.883.224 5.254.915 8.043h-3c-1.093-6.777-.919-12.375 1-19z"/><path fill="#838484" d="m2089 904 1 2-1 2 6 1v1h-10l1-5-1.875.625L2082 906l-2-2c3.118-1.56 5.67-.666 9 0"/><path fill="#757678" d="M1512 904h11l1 6-13-1c2-2 2-2 4.164-2.195l2.461.07 2.477.055 1.898.07v-2l-3.312.625C1515 906 1515 906 1512 904"/><path fill="#737578" d="m1687 887 1 4h2v2l1.875-1.875L1696 887c.188 2.875.188 2.875 0 6-3.208 2.139-4.277 2.477-8 2-2-3-2-3-1.625-5.687z"/><path fill="#E5EBED" d="m2341 734 2 1-1 4 3 1c0 3 0 3-1.5 4.688L2342 746l-1-1-1 2h-2z"/><path fill="#797C80" d="m1938 938 6 1v3c.31 1.671.64 3.339 1 5-1.812-.187-1.812-.187-4-1-2.142-2.907-3-4.355-3-8"/><path fill="#7D7D7D" d="m1122 914 3 1c1.102 2.726 2 5.041 2 8h-3l1 4h-3z"/><path fill="#7B7B7B" d="M1746 942h2l1 7h4v3h-7z"/><path fill="#737477" d="M2174 904h13v5h-12c4.355-2.178 5.466-2.03 10-1v-2l-11-1z"/><path fill="#8D9194" d="M1342 945h14v1l-6 1 2 1v2h-9l1-3 3 1v-2h-5z"/><path fill="#8B8D8F" d="m1952 944 11 2v1c-5.75.125-5.75.125-8-1l1 4c-6.75-.75-6.75-.75-9-3l5-1z"/><path fill="#87898B" d="m1768 912 2 1c-1 3-1 3-3 4v4l2 1-1 3c-2.062.688-2.062.688-4 1 .088-1.584.196-3.168.313-4.75l.175-2.672c.576-2.901 1.588-4.37 3.512-6.578"/><path fill="#747578" d="M1376 908c3.078 3.078 3.49 3.841 4.25 7.875l.516 2.555c.254 2.787.036 4.892-.766 7.57l-2 1z"/><path fill="#898A8B" d="M2112 910c2 2 2 2 3 5l1-5h1v11l-1-3h-2v6l-2-1z"/><path fill="#818281" d="M1404 887c.688 2.063.688 2.063 1 4-2.354 1.43-3.48 2.087-6.25 1.625L1397 892l1-5c3-1 3-1 6 0"/><path fill="#D7DFE4" d="M1990 738c2.248 3.372 3.169 6.638 4.188 10.5l.576 2.05c.895 3.35 1.355 5.093.236 8.45-2.274-4.96-3.786-9.678-5-15h-1a100 100 0 0 1 0-5z"/><path fill="#DFE4E8" d="m478 585 2 1-5 12c-3-4-3-4-2.742-6.105l.867-2.082.82-2.106C475 586 475 586 478 585"/><path fill="#7A7D80" d="M1486 886h3c-.75 6.75-.75 6.75-3 9-3.125.125-3.125.125-6 0l-1-4h2v2l5-2z"/><path fill="#356076" d="M1965 821h1c.537 7.115-1.303 12.45-4 19h-4c1-2 1-2 3-5 .76-2.38 1.462-4.779 2.125-7.187l.55-1.983q.67-2.414 1.325-4.83"/><path fill="#838487" d="m1228 945 2 1 2 6 2 1c-4.752-.432-6.92-1.328-10-5z"/><path fill="#8B8F93" d="M1300 902v8h-1v-7l-12 6v-3c8.262-4.592 8.262-4.592 13-4"/><path fill="#747578" d="M2271 903q2.843-.079 5.688-.125l3.199-.07c3.136.196 5.29.864 8.113 2.195v2l-2.703-.437-3.547-.563-3.516-.562c-3.35-.527-3.35-.527-7.234-.438z"/><path fill="#3C687E" d="m2012 720 3 1c2.2 5.377 2.208 11.285 2 17h-1q-1.006-3.655-2-7.312l-.578-2.092c-.8-2.954-1.422-5.522-1.422-8.596"/><path fill="#747577" d="m1218 916 2 1v19l-2 1q-.293-3.562-.562-7.125l-.17-2.016c-.304-4.132-.12-7.806.732-11.859"/><path fill="#8B8D8F" d="M1539 923h1l1 12-2-1c-.625-2.562-.625-2.562-1-5l-3 3c-.976-2.928-1.082-4.956-1-8l5 1z"/><path fill="#878A8D" d="m1776 904 2 1-3 4 2 1-2 3h-3v-2l-3 1c1.491-3.795 3.757-5.61 7-8"/><path fill="#D0D8DE" d="M1135 789c2.047 3.719 2.047 3.719 1.625 6.25L1136 797h3l1-5c1.3 2.598.813 3.76.188 6.563l-.52 2.44C1139 803 1139 803 1137 804c-2.104-5.13-2.218-9.561-2-15"/><path fill="#3D677C" d="M2335 747c.703 1.742.703 1.742 1 4-1.328 2.07-1.328 2.07-3.25 4.125l-1.89 2.07C2329 759 2329 759 2326 761l-3-1c5.75-5 5.75-5 8-5l.875-1.75z"/><path fill="#8E9296" d="M2186.188 948.375 2188 949l-1 4h-12v-1l2.813-.875c7.982-2.817 7.982-2.817 8.374-2.75"/><path fill="#787A7E" d="M1974 938h8c-1.25 3.653-1.671 4.78-5 7l-.875-1.937c-.953-2.215-.953-2.215-3.125-3.063z"/><path fill="#8F9497" d="M1967.188 925.875 1971 926l1 2h-2v2h13v1h-15l1-3h-9c3.089-2.06 3.71-2.239 7.188-2.125"/><path fill="#888A8A" d="M1457 903h8v1h-7v2l5-1v6l-2-1v-2h-2l-1 3-2-1z"/><path fill="#78797B" d="M1275 903h8l-1 3h-4l-1 13h-1z"/><path fill="#335E74" d="M1924 825c2 1 2 1 2.852 3.504l.773 3.058c.26 1.012.52 2.024.79 3.067L1929 837l4 1v2h-5c-2.945-4.993-3.635-9.336-4-15"/><path fill="#CAD1D7" d="m1230 792 2 1-2 13h-2l-1-9 3-1z"/><path fill="#76787A" d="m1570 939 1 2h-2l1 6c-3.75 3-3.75 3-6 3v-2h2v-2l-2-1c3.75-4.875 3.75-4.875 6-6"/><path fill="#7C7C7D" d="M2053 909h2c.934 3.01 1.044 3.867 0 7l3-1-1 4-5-2c-.125-5.75-.125-5.75 1-8"/><path fill="#7A7C80" d="M1894 906v2l-1.875.25c-2.286.556-2.286.556-3.312 2.688L1888 913l-1 2h-3c1.573-5.148 4.284-9 10-9"/><path fill="#75777B" d="M1497 904h3l2 3 3 2-1 3-7-2z"/><path fill="#79797C" d="M2131 903h7c.93 2.606 1.15 3.642.063 6.25L2137 911l-1-3 1-2h-4l-1 2z"/><path fill="#767678" d="M1439 903c6.625-.125 6.625-.125 10 1v2l-6-1v2l2 1c-1 1-1 1-4.062 1.063L1438 909l4-4h-3z"/><path fill="#D6DEE4" d="M2130 902h10v4l3 1-4 3-1-6-7-1v8h-1z"/><path fill="#BBC5CC" d="M2144 778h1c1.362 5.363 2.557 10.428 2 16l-3 3z"/><path fill="#BBC6CF" d="M930 715c2.329 3.493 2.236 4.86 2.195 8.98l-.02 3.526-.05 3.682-.027 3.716q-.036 4.548-.098 9.096h-1l-.076-2.171c-.116-3.235-.239-6.47-.361-9.704l-.12-3.418-.127-3.262-.11-3.015c-.056-2.438-.056-2.438-1.206-4.43z"/><path fill="#E1E6E9" d="m618 624 2 1-3 5-5-1v2h-5c2.153-2.35 4.217-3.824 7.063-5.25l2.097-1.078z"/><path fill="#E9EDF0" d="m954 1021 2 1c0 3 0 3-1 5-4.475 1.262-4.475 1.262-7 0l-1 2v-2l-2-1 1.715-.84 2.222-1.098 2.215-1.09c1.81-.836 1.81-.836 2.848-1.972"/><path fill="#77787B" d="m1887 930 .813 1.688c1.182 2.405 1.182 2.405 2.874 4.875L1892 939l-1 3-2-2v-3h-2c-1.044-3.133-.934-3.99 0-7m-4 8 3 1-1 2h-2z"/><path fill="#878787" d="M2238 926h1l-1 15c-2.361-3.542-2.781-5.77-3-10 1.375-2.937 1.375-2.937 3-5"/><path fill="#8B8D8F" d="M1538 914h4l2 2-3 7c-2-1.187-2-1.187-4-3-.312-2.625-.312-2.625 0-5z"/><path fill="#8D9092" d="M2334 902h1v9l-8 1v-2h-2l2-4 4 2-1 1 4 1z"/><path fill="#E4E9EC" d="m862 798 2 1-1.496 1.355c-4.917 4.425-4.917 4.425-6.504 10.645l-4-2q1.654-1.908 3.313-3.812l1.863-2.145c1.557-1.744 3.15-3.41 4.824-5.043"/><path fill="#3D697E" d="M2335 778h3q1.3 2.616 2.563 5.25l1.44 2.953c1.032 2.896 1.11 3.997-.003 6.797q-1.472-2.905-2.937-5.812l-1.653-3.27C2336 781 2336 781 2335 778"/><path fill="#E1E6E9" d="m795 583 4 1h-3l-.312 2.813c-.695 3.22-1.165 4.213-3.688 6.187l-2-6 2-2h3z"/><path fill="#72757B" d="M2255 938c3.288 3.11 5.837 6.016 8 10-3.095-.332-4.028-1.029-6.25-3.312C2255 942 2255 942 2255 938"/><path fill="#EBF0F2" d="m835 879 6 5-1 3c-2.562 1.188-2.562 1.188-5 2l1-3a88 88 0 0 0-1-5z"/><path fill="#38667C" d="M2048 759h1c-.42 5.605-.916 10.72-3 16h-1c.115-1.73.243-3.459.375-5.187.07-.963.14-1.926.21-2.918.417-2.91 1.214-5.224 2.415-7.895"/><path fill="#365D73" d="M2062 695h17v1l-14 1-2 7h-1z"/><path fill="#E0E5E8" d="m734 567 2 1c-.625 1.875-.625 1.875-2 4-3.125 1.25-3.125 1.25-6 2v-2l-2-1q1.932-1.044 3.875-2.062l2.18-1.16z"/><path fill="#878A8D" d="M1737 902c-3.732 3.57-8.095 4.11-13 5 4.22-5.275 6.615-5.541 13-5"/><path fill="#3A6277" d="m1975 695 3 1-2 2a100 100 0 0 0-1.625 6.125c-.26 1.096-.52 2.191-.79 3.32L1973 710l-2-1c.28-2.147.575-4.293.875-6.437l.492-3.622L1973 696z"/><path fill="#848686" d="M2103 941c.688 1.75.688 1.75 1 4-1.062 2.188-1.062 2.188-3 4-3.187.75-3.187.75-6 1l-1-2 7-1v-2l-2-1z"/><path fill="#75777B" d="M2082 905v2a375 375 0 0 1-6 4l-1 2h-2c.79-5.534 3.473-8 9-8"/><path fill="#37667B" d="M2058 817h1c.379 5.93-.894 10.472-3 16l-2-2z"/><path fill="#D4DBE1" d="m2144 798 3 1c.054 2.083.093 4.166.125 6.25l.07 3.516C2147 812 2147 812 2145 816z"/><path fill="#3D687D" d="M2023 762c3.117 2.55 4.017 5.143 5 9 .125 3.375.125 3.375 0 6-2.438-2.438-2.762-4.186-3.625-7.5-.26-.98-.52-1.96-.79-2.969C2023 764 2023 764 2023 762"/><path fill="#CCD2D7" d="m1366 729 3 1 1 5h-4l-2 4c-1-2-1-2-.441-3.945l.879-2.18.87-2.195z"/><path fill="#D6DEE3" d="M2094 696h1l1 6h-2l-.184 1.898-.253 2.477-.247 2.46C2093 711 2093 711 2092 713h-2c.785-5.813 2.407-11.369 4-17"/><path fill="#E2E7EA" d="m945 989 5 1-5 5-3-1v-2h-2l1-2 3 1z"/><path fill="#818488" d="m1868 948 2 1v4h-7v-4l5 1z"/><path fill="#747477" d="M1521 946h3v6h-9l1-2c2.563-.625 2.563-.625 5-1z"/><path fill="#8C8E90" d="m2270 945 10 1v1l-8 1v2l-5-1 1-2h2z"/><path fill="#76777A" d="M2076 946c3.724 1.213 7.378 2.509 11 4v2c-7.745-.745-7.745-.745-11-4z"/><path fill="#74767A" d="M1419 937c3.08 2.773 4.688 5.063 6 9h2v2c-1.75-.125-1.75-.125-4-1-2.934-3.667-4-5.231-4-10"/><path fill="#757678" d="M1458 926h3c-.255 1.794-.53 3.585-.812 5.375l-.458 3.023C1459 937 1459 937 1456 939a438 438 0 0 1 2-13"/><path fill="#8E9193" d="M2213 903c2.063.438 2.063.438 4 1h-2v4l4 2-5 1v-2l-4 1 1-3h2l-1-3z"/><path fill="#3E697E" d="M1958 756h2c1.399 4.196-.227 6.046-2 10-.691 2.779-.691 2.779-1 5h-1c-.218-5.439-.104-9.87 2-15"/><path fill="#D3DADF" d="M794 512c2 2 2 2 2.375 4.438C796 519 796 519 794 520.813L792 522l-2-1c-.625-2.062-.625-2.062-1-4l4-1v2h2z"/><path fill="#75787D" d="m1431 950 12 1v2c-1.437.081-2.874.14-4.312.188l-2.426.105C1434 953 1434 953 1431 950"/><path fill="#767678" d="M2024 944h1l1 8h-8l1-5 2 1-1 2h4z"/><path fill="#828383" d="M1797 943c2 1 2 1 4 4l-5-1-1 4h-5l1-2h3l.375-1.937L1795 944z"/><path fill="#87898A" d="M1562 907c2.169.506 4 1 6 2l1-2 4 5c-2.687.313-2.687.313-6 0-2.875-2.5-2.875-2.5-5-5"/><path fill="#757578" d="M1734 903c6.625-.25 6.625-.25 10 2l-1 3-2.187-.937c-2.616-.989-5.064-1.592-7.813-2.063z"/><path fill="#7A7A7B" d="M1503 890h8v5h-2v-2h-5z"/><path fill="#C4CBD1" d="m1273 743 1 3 2 1-3 3 3 1-3 1c-1.219 2.504-1.219 2.504-2 5-1.251-3.547-.723-5.723.438-9.25l.87-2.703z"/><path fill="#858585" d="M1421 961h5l1 5-4 1z"/><path fill="#767678" d="M2110 945h1v5h4l1-2 1 4h-8z"/><path fill="#7E7E7E" d="m2053 904 6 1-1 9h-1l-1-5-3-1z"/><path fill="#707378" d="M1557 903c7.745.745 7.745.745 11 4v2l-2.125-.875c-2.93-1.146-5.884-2.151-8.875-3.125z"/><path fill="#EDF0F2" d="M1140 788h2c-.7 3.147-1.76 6.026-3 9h-3c1.75-6.75 1.75-6.75 4-9"/><path fill="#DBE1E5" d="M1320 771c1 2 1 2 .223 4.383l-1.16 2.742-1.153 2.758L1317 783h-2c.458-3.47.891-6.674 2-10z"/><path fill="#D6DEE3" d="M1969 710c1.24 3.718.57 5.439-.437 9.188l-.872 3.292L1967 725c-3-3.75-3-3.75-3-6h2l.938-3.375C1968 712 1968 712 1969 710"/><path fill="#DFE5E8" d="m937 963 2 3c-.875 3.188-.875 3.188-2 6l-5-1z"/><path fill="#868789" d="M1450.438 967.5c2.63.513 4.055.336 6.562-.5-1.062 1.5-1.062 1.5-3 3-3.562.313-3.562.313-7 0l-2-2c3-1 3-1 5.438-.5"/><path fill="#74777C" d="m1562 950-1 3h-9v-2c3.435-.625 6.49-1 10-1"/><path fill="#79797B" d="M1130 946c1.063 1.875 1.063 1.875 2 4l-1 2h-8l1-4 4 2z"/><path fill="#888A8A" d="M2113 941c.625 1.875.625 1.875 1 4l-2 2c-2.625-.375-2.625-.375-5-1l1-3 3 1v-2z"/><path fill="#78787A" d="M1571 917c3.161 3.161 3.388 3.556 3.688 7.688l.199 2.449L1575 929l-2 1z"/><path fill="#7B7B7C" d="M1956 905a91 91 0 0 1-4 4h-2v-2l-2-1c3.067-1.862 4.597-2.215 8-1"/><path fill="#87898A" d="M1377 903c4 0 4 0 5.75 1.375C1384 906 1384 906 1384 908l-1.812-.562c-2.352-.659-2.352-.659-5.188.562-.562-1.937-.562-1.937-1-4z"/><path fill="#76777A" d="M1146 898c1 3 1 3 .004 5.262l-1.441 2.426-1.434 2.449L1142 910l-2-2z"/><path fill="#D4DBDF" d="m2340 819 1 2 2 1a415 415 0 0 1-3.812 3.5l-2.145 1.969C2335 829 2335 829 2332 829l1.242-1.426 1.633-1.886 1.617-1.864c1.672-1.959 1.672-1.959 3.508-4.824"/><path fill="#437084" d="M2300 777c5.04.445 7.376 2.713 11 6l-1 2q-2.504-1.714-5-3.437l-2.812-1.934L2300 778z"/><path fill="#DCE1E6" d="m778 775 4 5-3 4-3-1z"/><path fill="#767678" d="M2280 928h12c-2.259 2.259-2.942 2.345-6 2.688l-2.125.261C2282 931 2282 931 2280 930z"/><path fill="#767677" d="m1198 918 3 1c.222 1.623.427 3.249.625 4.875l.352 2.742L1202 929l-2 2z"/><path fill="#888C8F" d="m1901.688 908.875 3.011.055 2.301.07v1l-1.863.113-2.45.2-2.425.175c-2.65.6-3.467 1.548-5.262 3.512h-2v-3c3.42-2.28 4.682-2.22 8.688-2.125"/><path fill="#75787D" d="M1370 894c5.75 1.75 5.75 1.75 8 4v3c-2.95-1.37-5.525-2.878-8-5z"/><path fill="#3B6D82" d="m2229 811 3 1v9l-2 1c-1.176-3.674-1.074-7.17-1-11"/><path fill="#356076" d="M1951 787c1.188 3.43.802 5.378-.437 8.75l-.872 2.422L1949 800h-1c-.383-5.232.781-8.378 3-13"/><path fill="#D7DFE4" d="M2320 763h2l3 3c1.982 1.36 3.98 2.698 6 4l-1 2-1.645-1.059-2.168-1.379-2.144-1.37c-2.124-1.333-2.124-1.333-5.043-2.192z"/><path fill="#E3E8EB" d="m512 591 2 1c-.562 1.938-.562 1.938-2 4-3.625.75-3.625.75-7 1 2.257-2.335 4.28-4.187 7-6"/><path fill="#737477" d="M1579 946h1v6h-7l1-4v2h4z"/><path fill="#717377" d="M1259 947h2v5h-7l1-4v2h4z"/><path fill="#868787" d="m1509 943 6 5c-3 2-3 2-5 2-1.062-2.375-1.062-2.375-2-5z"/><path fill="#87898B" d="m1171 904 2 1-1 5h-3l-1 3-2-3z"/><path fill="#8C8F91" d="M1118 902c2.139 2.139 2.427 3.133 3 6h-2l-2 2h-2v-5h3z"/><path fill="#77787A" d="M1786 903c-1 2-1 2-3.312 3.188-2.808.848-3.99.811-6.688-.188 3.318-3.063 5.552-3.303 10-3"/><path fill="#747577" d="M1182 904c-2.9 1.934-3.897 2.301-7.187 2.625L1171 907c2-3 2-3 4.375-3.75 2.55-.243 4.216-.053 6.625.75"/><path fill="#BFC5CB" d="M1359 748c.934 3.01 1.044 3.867 0 7l2 1-6 6q.718-2.657 1.438-5.312l.808-2.989A121 121 0 0 1 1359 748"/><path fill="#DCE3E7" d="m2145 740 2 1v11l-2 2a491 491 0 0 1-.562-4.75l-.317-2.672c-.116-2.462.143-4.243.879-6.578"/><path fill="#356178" d="M2056 723h2c-.114 1.626-.242 3.25-.375 4.875l-.21 2.742C2057 733 2057 733 2055 735a560 560 0 0 1-.062-4.312l-.036-2.426C2055 726 2055 726 2056 723"/><path fill="#DFE6EA" d="M790 593h2l-.625 3.375L791 600l2 2-5 2c-.195-6.055-.195-6.055 0-8l2-2z"/><path fill="#858789" d="m1542 942 3 6-5 1c0-3.106.54-4.353 2-7"/><path fill="#7C7D80" d="M1945 941c3.242.35 4.615.562 6.813 3.063L1953 946l-2 1a318 318 0 0 1-6-5z"/><path fill="#8A8C8E" d="m1917 910 4 1-1 8-3-1c-.687-2.062-.687-2.062-1-4h2z"/><path fill="#75787C" d="m1915 906 5 1 1 4h-3l-1-3h-2z"/><path fill="#78797B" d="M1547 903c2.164-.293 2.164-.293 4.625-.187l2.477.082L1556 903c-3.636 1.979-6.884 2.525-11 3z"/><path fill="#94999E" d="M2218 902c8.193-.473 8.193-.473 11.563 1.5L2231 905h-7v-2h-6z"/><path fill="#717277" d="M1296 903h3v7h-5l2-1z"/><path fill="#78797A" d="m2018 889 10 1-1 2h-9z"/><path fill="#C9D4DA" d="M2006 795c2.097 3.146 2.52 5.015 3.125 8.688l.508 3.011L2010 809c-2.476-2.177-3.497-3.796-4.25-7l-.516-2.062C2005 798 2005 798 2006 795"/><path fill="#426F83" d="M1952 779h2c.37 5.538.37 5.538-1.5 7.875L1951 788c-1.255-3.766-.37-5.372 1-9"/><path fill="#D9DFE3" d="M853 583h1l1 8-1.875.438c-2.158.494-2.158.494-4.125 1.562z"/><path fill="#87888A" d="m1920 943-2 5-3-1v-2c3-2 3-2 5-2m-4 5 3 2-4 1z"/><path fill="#767677" d="M1794 946v2c-4.43 2.092-4.43 2.092-7.312 1.625L1785 949v-2c3.058-.544 5.888-1 9-1"/><path fill="#74777C" d="M1450 947h3c-1 3-1 3-3.375 4.188C1447 952 1447 952 1444 952v-2l2.438-.937c2.453-.826 2.453-.826 3.562-2.063"/><path fill="#767678" d="M1372 939v3h-2v2h-3v2l-3-1c2.49-2.667 4.634-4.557 8-6"/><path fill="#7E7E7E" d="M1810 933h2v9l-3-2z"/><path fill="#8B8F94" d="M1363 890c3.344.557 6.033 1.352 9 3l-4 2-3-2v-2z"/><path fill="#EEF2F4" d="m2326 760 2 2-2 4-4-1c1.75-3.875 1.75-3.875 4-5"/><path fill="#74767B" d="m1974 945 2 1Zm-1 1 1 3c-2 2-2 2-4.625 2.125L1967 951c1.933-2.025 3.632-3.421 6-5"/><path fill="#767678" d="M1955 946h11v2c-7.429 1.286-7.429 1.286-11 0z"/><path fill="#797A7C" d="M2180 946h7l1 3-2 2v-3l-3 1-3-1z"/><path fill="#73767B" d="M1376 943c-.687 1.938-.687 1.938-2 4-2.625.75-2.625.75-5 1 1-3 1-3 2.938-4.187C1374 943 1374 943 1376 943"/><path fill="#747578" d="M1169 941a56.5 56.5 0 0 1 7 4v2c-3.243-.56-4.93-1.413-7-4z"/><path fill="#767678" d="m2297 922 2 1v7h-3l-2-2h3z"/><path fill="#999FA4" d="m1849.75 901.875 2.422.055 1.828.07v1a311 311 0 0 1-4.25 1.063l-2.39.597c-2.464.355-4.016.109-6.36-.66 3.062-1.784 5.22-2.229 8.75-2.125"/><path fill="#7B7C7E" d="m1687 887 1 4h2v4l-3-1a129 129 0 0 1-1-6z"/><path fill="#CED7DD" d="M2038 796c1.097 3.29.8 4.713 0 8h-2l-1-6h3z"/><path fill="#DADFE3" d="m879 792-2.937 1.375c-3.134 1.283-3.134 1.283-4.063 3.625l-3-1v-2c6.625-3.125 6.625-3.125 10-2"/><path fill="#E0E6EA" d="m854 767 8 1c-2.686 2.686-5.376 3.06-9 4z"/><path fill="#DBE2E7" d="M1929 734c1.963 3.505 2.959 7.134 4 11l-2 2c-1.757-4.504-2.193-8.176-2-13"/><path fill="#D5DADF" d="M977 999h4v2c-2.878 1.918-5.886 3.5-9 5a162 162 0 0 1 2.25-3.5l1.266-1.969z"/><path fill="#8A8B8B" d="m1461 958 1 2a101 101 0 0 1-3 6l-2-1c.564-3.27 1.5-4.826 4-7"/><path fill="#888B8D" d="M2289 937h5l-3 2c-1.192 2.05-1.192 2.05-2 4l-3-1 1-2h2z"/><path fill="#6F7378" d="M2294 938h4l-2 6h-3z"/><path fill="#787879" d="M2173 930h1l1 10-3 1a758 758 0 0 1-.062-4.937l-.036-2.778C2172 931 2172 931 2173 930"/><path fill="#7A7B7D" d="M2110 927h1c.125 7.75.125 7.75-1 10l-3-1 1-4h2z"/><path fill="#757577" d="M1907.188 906.938 1909 908v1h-11c6.462-3.23 6.462-3.23 9.188-2.062"/><path fill="#797A7B" d="m2160 903 3 1-1 4 3-1 1 2h-6z"/><path fill="#85888B" d="m1694 885 3 1v6l-2-4h-4z"/><path fill="#CFD8DE" d="m715 846 3 3 3-2-1 6-3-1c-1.187-3.062-1.187-3.062-2-6"/><path fill="#DAE0E4" d="M603 843c1.414 2.639 2.372 5.071 3 8l-5-2z"/><path fill="#D4DBE0" d="M634 844h4v10c-1.67-3.338-2.874-6.462-4-10"/><path fill="#487184" d="m2016 830 3 1 1 7h-2z"/><path fill="#356076" d="M2062 802h1c.125 7.625.125 7.625-1 11h-2c1-7.429 1-7.429 2-11"/><path fill="#D9E0E4" d="M783 764c1 4 1 4 0 6l2 1-5 2z"/><path fill="#C8D1D7" d="M1990 738c2.125 3.188 2.502 5.265 3 9h-2c-2.148-3.222-2.294-4.278-2-8z"/><path fill="#C1CAD0" d="M1346 700c1 2 1 2 .441 4.164l-.879 2.461-.87 2.477L1344 711c-1.117-1.766-1.117-1.766-2-4 .936-2.646 2.45-4.63 4-7"/><path fill="#DFE4E7" d="M707 547q2.514.428 5 1c-1 2-1 2-4.062 3.125L705 552c.875-3.875.875-3.875 2-5"/><path fill="#797A7D" d="m2172 949 9 1-1 2h-7z"/><path fill="#737477" d="m1806 946 1 4h5v2h-7z"/><path fill="#747578" d="m1178 949 1 2 1.875-.625L1183 950l2 2c-3.287.8-4.71 1.097-8 0z"/><path fill="#75787D" d="m1199 945-1 4-5 1v-2c3.462-3 3.462-3 6-3"/><path fill="#757578" d="M1450 946c-5.415 3.077-5.415 3.077-8.375 2.688L1440 948v-1c6.286-2.429 6.286-2.429 10-1"/><path fill="#8B8E91" d="M1167.188 940.938 1169 942l-2.437.375L1164 943l-1 2v-2h-2c1.519-3.037 3.137-3.37 6.188-2.062"/><path fill="#76777A" d="M1532 933h2c1.257 2.906 2 4.796 2 8h-2c-1.257-2.906-2-4.796-2-8"/><path fill="#969CA2" d="M2067 921h1v5h2v3h-2l-1 3z"/><path fill="#8C8F91" d="M1121 918h2l-1 9c-2.153-2.153-2.641-3.04-3-6z"/><path fill="#888B8E" d="M1429 911h3c-1.293 2.884-2.66 4.872-5 7v-5h2z"/><path fill="#77787A" d="m1943 909 3 1a141 141 0 0 1-5 5h-2c.313-1.875.313-1.875 1-4z"/><path fill="#727377" d="M2153 903h2v7h-2v-3l-2-1z"/><path fill="#85898D" d="M1957 902c3.125-.187 3.125-.187 6 0-1.187 1.5-1.187 1.5-3 3-2.687.188-2.687.188-5 0z"/><path fill="#CFD6DB" d="M1438 835c2 1.188 2 1.188 4 3 .25 2.688.25 2.688 0 5h-3z"/><path fill="#CFD7DD" d="M2070 781h1c.75 2.688.75 2.688 1 6-1.937 2.875-1.937 2.875-4 5 1-7.429 1-7.429 2-11"/><path fill="#E4EAEE" d="m2304 743 5 1-3 5-2-2z"/></svg>